<svg width="20" height="20" viewBox="0 0 20 20" fill="none" xmlns="http://www.w3.org/2000/svg">
<path d="M4.83333 4C4.61232 4 4.40036 4.08231 4.24408 4.22882C4.0878 4.37534 4 4.57405 4 4.78125C4 4.98845 4.0878 5.18716 4.24408 5.33368C4.40036 5.48019 4.61232 5.5625 4.83333 5.5625H14.8333C15.0543 5.5625 15.2663 5.48019 15.4226 5.33368C15.5789 5.18716 15.6667 4.98845 15.6667 4.78125C15.6667 4.57405 15.5789 4.37534 15.4226 4.22882C15.2663 4.08231 15.0543 4 14.8333 4H4.83333ZM4 7.90625C4 7.69905 4.0878 7.50034 4.24408 7.35382C4.40036 7.20731 4.61232 7.125 4.83333 7.125H14.8333C15.0543 7.125 15.2663 7.20731 15.4226 7.35382C15.5789 7.50034 15.6667 7.69905 15.6667 7.90625C15.6667 8.11345 15.5789 8.31216 15.4226 8.45868C15.2663 8.60519 15.0543 8.6875 14.8333 8.6875H4.83333C4.61232 8.6875 4.40036 8.60519 4.24408 8.45868C4.0878 8.31216 4 8.11345 4 7.90625ZM4.83333 10.25C4.61232 10.25 4.40036 10.3323 4.24408 10.4788C4.0878 10.6253 4 10.824 4 11.0312C4 11.2385 4.0878 11.4372 4.24408 11.5837C4.40036 11.7302 4.61232 11.8125 4.83333 11.8125H14.8333C15.0543 11.8125 15.2663 11.7302 15.4226 11.5837C15.5789 11.4372 15.6667 11.2385 15.6667 11.0312C15.6667 10.824 15.5789 10.6253 15.4226 10.4788C15.2663 10.3323 15.0543 10.25 14.8333 10.25H4.83333ZM4.83333 13.375C4.61232 13.375 4.40036 13.4573 4.24408 13.6038C4.0878 13.7503 4 13.949 4 14.1562C4 14.3635 4.0878 14.5622 4.24408 14.7087C4.40036 14.8552 4.61232 14.9375 4.83333 14.9375H9.83333C10.0543 14.9375 10.2663 14.8552 10.4226 14.7087C10.5789 14.5622 10.6667 14.3635 10.6667 14.1562C10.6667 13.949 10.5789 13.7503 10.4226 13.6038C10.2663 13.4573 10.0543 13.375 9.83333 13.375H4.83333Z" fill="white"/>
<path d="M0 2.5C0 1.83696 0.351189 1.20107 0.976311 0.732233C1.60143 0.263392 2.44928 0 3.33333 0L16.6667 0C17.5507 0 18.3986 0.263392 19.0237 0.732233C19.6488 1.20107 20 1.83696 20 2.5V17.5C20 18.163 19.6488 18.7989 19.0237 19.2678C18.3986 19.7366 17.5507 20 16.6667 20H3.33333C2.44928 20 1.60143 19.7366 0.976311 19.2678C0.351189 18.7989 0 18.163 0 17.5V2.5ZM16.6667 1.25H3.33333C2.89131 1.25 2.46738 1.3817 2.15482 1.61612C1.84226 1.85054 1.66667 2.16848 1.66667 2.5V17.5C1.66667 17.8315 1.84226 18.1495 2.15482 18.3839C2.46738 18.6183 2.89131 18.75 3.33333 18.75H16.6667C17.1087 18.75 17.5326 18.6183 17.8452 18.3839C18.1577 18.1495 18.3333 17.8315 18.3333 17.5V2.5C18.3333 2.16848 18.1577 1.85054 17.8452 1.61612C17.5326 1.3817 17.1087 1.25 16.6667 1.25Z" fill="white"/>
</svg>

