<svg width="25" height="19" viewBox="0 0 25 19" fill="none" xmlns="http://www.w3.org/2000/svg">
<path d="M25 3.125C25 2.2962 24.6708 1.50134 24.0847 0.915291C23.4987 0.32924 22.7038 0 21.875 0H3.125C2.2962 0 1.50134 0.32924 0.915293 0.915291C0.329241 1.50134 0 2.2962 0 3.125V15.625C0 16.4538 0.329241 17.2487 0.915293 17.8347C1.50134 18.4208 2.2962 18.75 3.125 18.75H21.875C22.7038 18.75 23.4987 18.4208 24.0847 17.8347C24.6708 17.2487 25 16.4538 25 15.625V3.125ZM21.875 1.5625C22.2894 1.5625 22.6868 1.72712 22.9799 2.02015C23.2729 2.31317 23.4375 2.7106 23.4375 3.125V3.46406L12.5 10.0266L1.5625 3.46406V3.125C1.5625 2.7106 1.72712 2.31317 2.02015 2.02015C2.31317 1.72712 2.7106 1.5625 3.125 1.5625H21.875ZM1.5625 5.28594L8.99688 9.74687L1.5625 14.2406V5.2875V5.28594ZM1.61563 16.0328L10.5141 10.6562L12.5 11.8484L14.4875 10.6562L23.3844 16.0312C23.295 16.3632 23.0987 16.6563 22.8258 16.8654C22.5529 17.0744 22.2187 17.1876 21.875 17.1875H3.125C2.78147 17.1877 2.44744 17.0747 2.17459 16.866C1.90174 16.6573 1.70529 16.3644 1.61563 16.0328ZM23.4375 14.2406L16.0031 9.74687L23.4375 5.28594V14.2391V14.2406Z" fill="white"/>
</svg>
