<svg width="25" height="24" viewBox="0 0 25 24" fill="none" xmlns="http://www.w3.org/2000/svg">
<path d="M12.5 0C5.59375 0 0 5.50583 0 12.3035C0 17.7478 3.57812 22.3463 8.54688 23.9765C9.17188 24.0842 9.40625 23.715 9.40625 23.3921C9.40625 23.0999 9.39062 22.131 9.39062 21.1005C6.25 21.6696 5.4375 20.347 5.1875 19.6549C5.04688 19.3012 4.4375 18.2092 3.90625 17.917C3.46875 17.6863 2.84375 17.1173 3.89062 17.1019C4.875 17.0865 5.57812 17.9939 5.8125 18.363C6.9375 20.2239 8.73438 19.701 9.45312 19.3781C9.5625 18.5783 9.89062 18.04 10.25 17.7325C7.46875 17.4249 4.5625 16.3637 4.5625 11.6576C4.5625 10.3196 5.04688 9.21227 5.84375 8.35102C5.71875 8.04343 5.28125 6.78232 5.96875 5.09058C5.96875 5.09058 7.01562 4.76762 9.40625 6.3517C10.4062 6.07487 11.4688 5.93645 12.5313 5.93645C13.5938 5.93645 14.6563 6.07487 15.6563 6.3517C18.0469 4.75224 19.0938 5.09058 19.0938 5.09058C19.7812 6.78232 19.3438 8.04343 19.2188 8.35102C20.0156 9.21227 20.5 10.3042 20.5 11.6576C20.5 16.3791 17.5781 17.4249 14.7969 17.7325C15.25 18.1169 15.6406 18.8552 15.6406 20.0086C15.6406 21.6542 15.625 22.9768 15.625 23.3921C15.625 23.715 15.8594 24.0995 16.4844 23.9765C18.966 23.1521 21.1224 21.5824 22.65 19.4884C24.1777 17.3944 24.9996 14.8815 25 12.3035C25 5.50583 19.4062 0 12.5 0Z" fill="white"/>
</svg>
