<svg width="20" height="21" viewBox="0 0 20 21" fill="none" xmlns="http://www.w3.org/2000/svg">
<path d="M7.66849 0L7.39526 2.46812C6.35771 2.81801 5.41199 3.37161 4.60838 4.08015L2.33151 3.07832L0 7.12204L1.99452 8.58833C1.89056 9.10843 1.83971 9.64966 1.83971 10.2004C1.83971 10.751 1.89059 11.2923 1.99452 11.8124L0 13.2787L2.33151 17.3224L4.60838 16.3206C5.41199 17.0291 6.35771 17.5827 7.39526 17.9326L7.66849 20.4007H12.3315L12.6047 17.9326C13.6423 17.5827 14.588 17.0291 15.3916 16.3206L17.6685 17.3224L20 13.2787L18.0055 11.8124C18.1094 11.2923 18.1603 10.751 18.1603 10.2004C18.1603 9.64966 18.1094 9.10843 18.0055 8.58833L20 7.12204L17.6685 3.07832L15.3916 4.08015C14.588 3.37161 13.6423 2.81801 12.6047 2.46812L12.3315 0H7.66849ZM10 5.2459C12.7363 5.2459 14.9545 7.46404 14.9545 10.2004C14.9545 12.9366 12.7363 15.1548 10 15.1548C7.26374 15.1548 5.04554 12.9366 5.04554 10.2004C5.04554 7.46404 7.26374 5.2459 10 5.2459Z" fill="white"/>
</svg>
