<svg width="25" height="25" viewBox="0 0 25 25" fill="none" xmlns="http://www.w3.org/2000/svg">
<path d="M5.25313 15.7969C5.25313 17.2437 4.07188 18.4234 2.62656 18.4234C1.18125 18.4234 0 17.2437 0 15.7984C0 14.3531 1.18125 13.1719 2.625 13.1719H5.25313V15.7969ZM6.575 15.7969C6.575 14.3531 7.75625 13.1719 9.20156 13.1719C10.6469 13.1719 11.8281 14.3531 11.8281 15.7969V22.375C11.8281 23.8188 10.6469 25 9.20312 25C8.50702 24.9988 7.83974 24.7219 7.34723 24.23C6.85472 23.7381 6.57706 23.0711 6.575 22.375V15.7969ZM9.20312 5.25313C7.75625 5.25313 6.575 4.07188 6.575 2.62656C6.575 1.18125 7.75625 0 9.20312 0C10.65 0 11.8281 1.18125 11.8281 2.625V5.25313H9.20312ZM9.20312 6.575C10.6469 6.575 11.8281 7.75625 11.8281 9.20156C11.8281 10.6469 10.6469 11.8281 9.20312 11.8281H2.625C1.18281 11.8281 0 10.6469 0 9.20312C0 7.75625 1.18125 6.575 2.625 6.575H9.20312ZM19.7484 9.20312C19.7484 7.75625 20.9281 6.575 22.3734 6.575C23.8188 6.575 25 7.75625 25 9.20156C25 10.6469 23.8188 11.8281 22.375 11.8281H19.7484V9.20312ZM18.4234 9.20312C18.4234 10.6469 17.2437 11.8281 15.7984 11.8281C15.1026 11.8265 14.4357 11.5494 13.9436 11.0576C13.4514 10.5657 13.1739 9.89895 13.1719 9.20312V2.625C13.1719 1.18281 14.3531 0 15.7969 0C17.2437 0 18.4234 1.18125 18.4234 2.625V9.20312ZM15.7969 19.7469C17.2437 19.7469 18.425 20.9281 18.425 22.3734C18.425 23.8188 17.2437 25 15.7969 25C14.35 25 13.1703 23.8188 13.1703 22.375V19.7469H15.7953H15.7969ZM15.7969 18.4234C14.3531 18.4234 13.1719 17.2437 13.1719 15.7984C13.1719 14.3531 14.3531 13.1719 15.7969 13.1719H22.375C23.8188 13.1719 25 14.3531 25 15.7969C25 17.2437 23.8188 18.4234 22.375 18.4234H15.7969Z" fill="white"/>
</svg>
