<svg width="25" height="21" viewBox="0 0 25 21" fill="none" xmlns="http://www.w3.org/2000/svg">
<path d="M7.85313 21C17.2875 21 22.4484 12.9187 22.4484 5.9228C22.4484 5.69666 22.4484 5.46729 22.4391 5.24115C23.4438 4.4892 24.311 3.55825 25 2.49191C24.0614 2.91972 23.0668 3.20168 22.0484 3.32863C23.1211 2.66578 23.9246 1.62283 24.3094 0.393637C23.3015 1.01088 22.1985 1.44418 21.0484 1.67457C20.2753 0.823345 19.2522 0.259434 18.1376 0.0701857C17.0231 -0.119063 15.8793 0.0769118 14.8833 0.627754C13.8874 1.1786 13.095 2.05356 12.6288 3.11713C12.1626 4.18069 12.0487 5.37349 12.3047 6.51077C10.2652 6.40505 8.27003 5.85733 6.4485 4.90314C4.62698 3.94894 3.01982 2.60957 1.73125 0.971914C1.07709 2.13991 0.877459 3.5215 1.17288 4.83614C1.46831 6.15077 2.23665 7.29989 3.32187 8.05015C2.50866 8.02159 1.71331 7.79584 1 7.39111V7.4638C1.0014 8.68736 1.41142 9.87289 2.16074 10.82C2.91006 11.7671 3.95273 12.4177 5.1125 12.6618C4.67229 12.7872 4.21755 12.8497 3.76094 12.8476C3.43904 12.8486 3.11778 12.8178 2.80156 12.7555C3.12935 13.8088 3.76761 14.7297 4.62695 15.3892C5.48628 16.0488 6.52365 16.4139 7.59375 16.4336C5.77587 17.9096 3.53031 18.7102 1.21875 18.7063C0.811439 18.7081 0.404411 18.6838 0 18.6336C2.34612 20.1799 5.07078 21.0009 7.85313 21Z" fill="white"/>
</svg>
