<?xml version="1.0" encoding="UTF-8"?>
<!-- Generator: Adobe Illustrator 22.1.0, SVG Export Plug-In . SVG Version: 6.00 Build 0)  -->
<svg version="1.1" id="Layer_1" xmlns="http://www.w3.org/2000/svg" xmlns:xlink="http://www.w3.org/1999/xlink" x="0px" y="0px" viewBox="0 0 486.5 92.3" style="enable-background:new 0 0 486.5 92.3;" xml:space="preserve">
<style type="text/css">
	.st0{fill:#FFFFFF;}
</style>
<g>
	<g>
		<path class="st0" d="M72.5,24.3H0.4V0.4h84.4V12C84.8,18.8,79.3,24.3,72.5,24.3z"/>
		<path class="st0" d="M41.8,58H0.4V34.1h53.7v11.6C54.1,52.5,48.6,58,41.8,58z"/>
		<path class="st0" d="M12,91.7H0.4V67.8h23.9v11.6C24.2,86.2,18.7,91.7,12,91.7z"/>
	</g>
	<g>
		<path class="st0" d="M121.7,77V16.9h36.9v4.2c0,3.7-3,6.8-6.8,6.8h-18.4v13.5H150v3.5c0,4.1-3.3,7.5-7.5,7.5h-9.1v19.1    c0,3-2.5,5.5-5.5,5.5H121.7z"/>
		<path class="st0" d="M161.1,64.7c0-2,0.3-3.7,1-5.1c0.7-1.5,1.6-2.7,2.9-3.6c1.3-1,2.7-1.7,4.2-2.3c1.6-0.6,3.3-1,5.4-1.3l11.3-2    v-1.5c0-2-0.5-3.5-1.6-4.6c-1-1.1-2.6-1.6-4.5-1.6s-3.4,0.5-4.6,1.4c-1.2,1-1.8,2.2-1.8,3.8h-10.8c0.3-4.5,1.9-8.2,5.1-11    c3.1-2.8,7.2-4.3,12.3-4.3c5.3,0,9.5,1.3,12.6,4s4.7,6.6,4.7,11.8V77h-4.7c-2.8,0-5.1-2.1-5.5-4.8l-0.1-1.1    c-2.7,4.6-6.9,6.8-12.4,6.8c-3.9,0-7.1-1.2-9.6-3.6C162.4,72,161.1,68.8,161.1,64.7z M172.3,64c0,1.2,0.4,2.1,1.3,2.8    c0.9,0.7,2.1,1,3.7,1c1.4,0,2.7-0.3,3.9-0.9c1.2-0.6,2.2-1.5,3-2.7c1-1.4,1.5-3.2,1.5-5.3v-1.2l-8.7,1.8c-1.6,0.3-2.8,0.8-3.6,1.5    C172.7,61.8,172.3,62.7,172.3,64z"/>
		<path class="st0" d="M207,20.9c0-1.8,0.7-3.6,2-4.9c1.3-1.2,2.8-1.9,4.6-1.9c1.8,0,3.6,0.6,4.9,1.9c1.4,1.3,2.1,2.9,2.1,4.8    s-0.7,3.4-2,4.7c-1.3,1.3-2.9,1.9-4.8,1.9s-3.5-0.6-4.8-1.9C207.7,24.2,207.1,22.7,207,20.9z M208.2,77V33.5h11.2v38    c0,3-2.5,5.5-5.5,5.5H208.2z"/>
		<path class="st0" d="M230.4,77V33.5h9.6l1.1,6.8c0.8-2.1,2.3-3.9,4.4-5.2c2.1-1.4,4.9-2.1,8.3-2.1v11c-3.5,0-6.4,0.9-8.6,2.6    s-3.4,4.4-3.5,8.1v16.7c0,3-2.5,5.5-5.5,5.5L230.4,77L230.4,77z"/>
		<path class="st0" d="M259.6,33.5h11.9l6.6,26.1l0.8,4.6l1-4.6l7.4-26.1h9.9l7.4,26.1l0.9,4.6l0.8-4.6l6.7-26.1h11.9L313,72.9    c-0.7,2.4-3,4.1-5.5,4.1H300l-7.9-25.6L285,73c-0.8,2.3-3,3.9-5.4,3.9h-7L259.6,33.5z"/>
		<path class="st0" d="M330.5,20.7c0-1.8,0.7-3.4,2-4.7c1.3-1.3,2.9-1.9,4.8-1.9c1.8,0,3.4,0.6,4.8,1.9c1.3,1.3,2,2.8,2,4.7    c0,1.9-0.7,3.4-2,4.7c-1.3,1.3-2.9,1.9-4.8,1.9s-3.5-0.6-4.8-1.9C331.2,24.2,330.5,22.6,330.5,20.7z M331.7,77V33.5h11.2v38    c0,3-2.5,5.5-5.5,5.5H331.7z"/>
		<path class="st0" d="M354.8,77V33.5h9.6l0.9,5.8c1.1-2,2.6-3.6,4.6-4.9c2-1.2,4.4-1.9,7.2-1.9c4.5,0,8,1.4,10.4,4.3    s3.6,6.8,3.6,11.9v22.5c0,3.2-2.6,5.7-5.7,5.7h-5.5V51.4c0-2.5-0.5-4.5-1.6-5.8c-1-1.3-2.6-2-4.6-2c-2.3,0-4.1,0.9-5.5,2.7    c-1.4,1.8-2.2,4.4-2.2,7.9v17.1c0,3.2-2.6,5.7-5.7,5.7L354.8,77L354.8,77z"/>
		<path class="st0" d="M399.1,55.2c0-6.4,1.9-11.8,5.7-16.1c3.8-4.3,8.7-6.5,14.5-6.5c2.9,0,5.5,0.5,7.8,1.6s4,2.4,5.2,4.1V14.4    h11.2V77h-4.8c-2.7,0-5-2-5.4-4.7l-0.2-1.2c-3.1,4.5-7.7,6.8-13.9,6.8c-3.8,0-7.3-1-10.4-3s-5.5-4.7-7.2-8.2    C399.9,63.3,399.1,59.4,399.1,55.2z M410.5,55.2c0,3.7,1,6.6,3.1,8.9c2.1,2.3,4.7,3.4,7.8,3.4c2.9,0,5.5-1.1,7.7-3.2    c2.2-2.2,3.3-5.1,3.3-8.8V55c0-2.5-0.6-4.6-1.7-6.5s-2.5-3.2-4.1-4.1s-3.4-1.3-5.2-1.3c-3.1,0-5.7,1.1-7.8,3.4    S410.5,51.6,410.5,55.2z"/>
		<path class="st0" d="M452.2,63.8h6.9c2,0,3.7,1.2,4.8,2.9c0.2,0.4,0.6,0.7,0.9,1c1.1,0.9,2.6,1.4,4.5,1.4c1.7,0,3-0.4,4-1.1    c0.9-0.7,1.4-1.8,1.4-3c0-1.4-0.5-2.5-1.6-3.3s-3.2-1.5-6.2-2.1c-4.8-0.8-8.3-2.3-10.5-4.4c-2.3-2.1-3.4-4.9-3.4-8.5    c0-4,1.4-7.4,4.2-10.1c2.8-2.7,6.8-4.1,11.9-4.1c4.6,0,8.4,1.3,11.3,3.8c2.9,2.5,4.5,5.8,4.7,9.9H474c-0.1-3.3-1.7-5-5-5    c-1.5,0-2.7,0.4-3.5,1.2c-0.8,0.8-1.3,1.8-1.3,3.1c0,1.4,0.5,2.4,1.6,3.1s3.1,1.3,6,1.8c5.1,0.9,8.8,2.4,10.9,4.5    c2.2,2.1,3.2,5,3.2,8.7c0,2.4-0.4,4.5-1.3,6.4c-0.9,1.8-2.1,3.3-3.7,4.4c-1.6,1.1-3.3,2-5.3,2.5c-2,0.6-4.1,0.8-6.5,0.8    c-5.3,0-9.4-1.3-12.3-3.8C453.9,71.6,452.3,68.2,452.2,63.8z"/>
	</g>
</g>
</svg>
