<?xml version="1.0" encoding="utf-8"?>
<!-- Generator: Adobe Illustrator 24.2.3, SVG Export Plug-In . SVG Version: 6.00 Build 0)  -->
<svg version="1.1" id="Layer_1" xmlns="http://www.w3.org/2000/svg" xmlns:xlink="http://www.w3.org/1999/xlink" x="0px" y="0px"
	 viewBox="0 0 3000 706.2" style="enable-background:new 0 0 3000 706.2;" xml:space="preserve">
<style type="text/css">
	.st0{fill:#231039;}
	.st1{fill:#6D6D6D;}
	.st2{font-family:'CircularStd-Book';}
	.st3{font-size:88.0749px;}
	.st4{fill:#F36D21;}
	.st5{fill:none;stroke:#F36D21;stroke-width:4;stroke-linecap:round;stroke-linejoin:round;stroke-miterlimit:10;}
	.st6{fill:#898989;}
	.st7{fill:#BCBCBC;}
	.st8{fill:none;}
	.st9{fill:#DBDBDB;}
	.st10{enable-background:new    ;}
	.st11{fill:#23183A;}
	.st12{fill:#B5B5B5;}
	.st13{fill:#9F234F;}
	.st14{fill:#F08117;}
	.st15{fill:#8ED0D9;}
	.st16{fill:#A3A3A3;}
	.st17{fill:#D1D1D1;}
	.st18{fill:#D1D1D1;stroke:#23183A;stroke-width:2.3711;stroke-miterlimit:10;}
	.st19{fill:none;stroke:#D1D1D1;stroke-width:6.6619;stroke-miterlimit:10;}
	.st20{fill:#23103A;}
	.st21{fill:#270D3C;}
	.st22{fill:#26163C;}
	.st23{fill:#F26722;}
	.st24{fill:#F78F1E;}
	.st25{fill:#F9AC78;}
	.st26{fill:#FF6700;}
	.st27{fill:url(#SVGID_1_);}
	.st28{fill:url(#SVGID_2_);}
	.st29{fill:url(#SVGID_3_);}
	.st30{fill:url(#SVGID_4_);}
</style>
<g>
	<g>
		<g>
			<path class="st0" d="M317.7,177.6h-149v-49.3h174.4v23.9C343.1,166.3,331.7,177.6,317.7,177.6z"/>
			<path class="st0" d="M254.3,247.2h-85.6v-49.3h111v23.9C279.7,235.9,268.3,247.2,254.3,247.2z"/>
			<path class="st0" d="M192.7,316.8h-24v-49.3H218v23.9C218,305.5,206.7,316.8,192.7,316.8z"/>
		</g>
	</g>
	<g>
		<path class="st0" d="M398.5,287.3V136.7h93.7v24H424V203h61.2v23.6H424v60.8H398.5z"/>
		<path class="st0" d="M532.1,228l26.6-4c6-0.8,7.6-3.8,7.6-7.4c0-8.7-5.9-15.7-19.5-15.7c-13,0-20.2,8.3-21.2,18.7l-22.5-5.1
			c1.9-17.8,18.1-33.8,43.6-33.8c31.9,0,44,18.1,44,38.7v51.4c0,9.3,1.1,15.5,1.3,16.6h-22.9c-0.2-0.6-1.1-4.9-1.1-13.2
			c-4.9,7.9-15.1,16.4-31.9,16.4c-21.7,0-35.1-14.9-35.1-31.2C500.9,240.8,514.5,230.6,532.1,228z M566.3,244.4v-4.7l-27,4
			c-7.6,1.3-13.8,5.5-13.8,14c0,7,5.3,13.4,15.1,13.4C554.4,271.2,566.3,264.6,566.3,244.4z"/>
		<path class="st0" d="M632.4,131.4c8.9,0,16.1,7.2,16.1,16.1s-7.2,15.9-16.1,15.9c-8.7,0-15.9-7-15.9-15.9S623.7,131.4,632.4,131.4
			z M620.3,287.3V183.9h24.4v103.5H620.3z"/>
		<path class="st0" d="M737.2,208.3c-2.8-0.4-5.5-0.6-8.1-0.6c-19.1,0-27.8,11-27.8,30.4v49.3h-24.6V183.9h24v16.6
			c4.9-11.3,16.4-17.8,30-17.8c3,0,5.5,0.4,6.6,0.6V208.3z"/>
		<path class="st0" d="M844.3,183.9l24.4,71.6l20.6-71.6h25.1l-33.1,103.5h-24.6L830.9,213l-25.1,74.4h-25.3L747,183.9h26.3l21,71.6
			l24.4-71.6H844.3z"/>
		<path class="st0" d="M945.2,131.4c8.9,0,16.1,7.2,16.1,16.1s-7.2,15.9-16.1,15.9c-8.7,0-15.9-7-15.9-15.9S936.5,131.4,945.2,131.4
			z M933.1,287.3V183.9h24.4v103.5H933.1z"/>
		<path class="st0" d="M1014.1,287.3h-24.6V183.9h24v13.8c6.8-11.9,19.1-16.8,30.6-16.8c25.3,0,37.4,18.3,37.4,41v65.4h-24.6v-61.2
			c0-12.8-5.7-22.9-21.2-22.9c-14,0-21.5,10.8-21.5,24.4V287.3z"/>
		<path class="st0" d="M1207,268.4c0,9.3,0.9,17.2,1.1,18.9h-23.6c-0.4-2.3-1.1-9.1-1.1-13.4c-4.9,8.7-15.7,15.9-30.4,15.9
			c-29.7,0-49.7-23.4-49.7-54.6c0-29.8,20.2-54.2,49.3-54.2c18.1,0,27.2,8.3,30.4,14.9v-62.5h24V268.4z M1155.8,268.2
			c16.1,0,27.4-13.4,27.4-33.1s-11-32.1-27.2-32.1c-16.1,0-28,12.5-28,32.3C1128,255,1139,268.2,1155.8,268.2z"/>
		<path class="st0" d="M1251.6,253.3c0.9,9.3,7.9,17.6,21,17.6c10.2,0,15.5-5.5,15.5-11.9c0-5.5-3.8-9.8-12.1-11.5l-15.3-3.4
			c-18.3-4-27.8-15.9-27.8-30.2c0-18.1,16.6-33.4,38-33.4c28.9,0,38.2,18.7,39.9,28.9l-20.8,5.9c-0.9-5.9-5.3-15.5-19.1-15.5
			c-8.7,0-14.9,5.5-14.9,11.9c0,5.5,4,9.6,10.4,10.8l15.7,3.2c19.5,4.2,29.7,16.2,29.7,31.4c0,15.7-12.7,33.1-39.1,33.1
			c-30,0-41.4-19.5-42.7-31.2L1251.6,253.3z"/>
		<path class="st0" d="M1391.2,287.3V136.7h25.9v150.7H1391.2z"/>
		<path class="st0" d="M1475.8,287.3h-24.6V183.9h24v13.8c6.8-11.9,19.1-16.8,30.6-16.8c25.3,0,37.4,18.3,37.4,41v65.4h-24.6v-61.2
			c0-12.8-5.7-22.9-21.2-22.9c-14,0-21.5,10.8-21.5,24.4V287.3z"/>
		<path class="st0" d="M1585.4,253.3c0.9,9.3,7.9,17.6,21,17.6c10.2,0,15.5-5.5,15.5-11.9c0-5.5-3.8-9.8-12.1-11.5l-15.3-3.4
			c-18.3-4-27.8-15.9-27.8-30.2c0-18.1,16.6-33.4,38-33.4c28.9,0,38.2,18.7,39.9,28.9l-20.8,5.9c-0.9-5.9-5.3-15.5-19.1-15.5
			c-8.7,0-14.9,5.5-14.9,11.9c0,5.5,4,9.6,10.4,10.8l15.7,3.2c19.5,4.2,29.7,16.2,29.7,31.4c0,15.7-12.7,33.1-39.1,33.1
			c-30,0-41.4-19.5-42.7-31.2L1585.4,253.3z"/>
		<path class="st0" d="M1682.3,131.4c8.9,0,16.1,7.2,16.1,16.1s-7.2,15.9-16.1,15.9c-8.7,0-15.9-7-15.9-15.9
			S1673.6,131.4,1682.3,131.4z M1670.2,287.3V183.9h24.4v103.5H1670.2z"/>
		<path class="st0" d="M1741.8,287.1c1.7,12.8,11.7,22.3,25.9,22.3c19.5,0,29.3-10,29.3-31v-10.8c-4.5,8.1-14.9,15.1-30,15.1
			c-27.6,0-47.8-21.2-47.8-50.4c0-27.6,19.3-50.4,47.8-50.4c16.1,0,26.1,6.6,30.6,15.1v-13.2h23.8v93.7c0,27.6-14.2,53.3-53.1,53.3
			c-27.4,0-46.5-17-49.3-37.8L1741.8,287.1z M1797.7,232.3c0-17.6-11.3-29.1-26.6-29.1c-15.7,0-27,11.5-27,29.1
			c0,18.1,10.8,29.3,27,29.3C1786.9,261.6,1797.7,250.1,1797.7,232.3z"/>
		<path class="st0" d="M1876.3,287.3h-24.6V133.5h24.6v60.3c7-9.1,18.7-13,29.5-13c25.5,0,37.8,18.3,37.8,41v65.4H1919v-61.2
			c0-12.8-5.7-22.9-21.2-22.9c-13.6,0-21,10.2-21.5,23.4V287.3z"/>
		<path class="st0" d="M2004.9,183.9h21.5v21.9h-21.5v48c0,9.1,4,13,13.2,13c3.4,0,7.4-0.6,8.5-0.8v20.4c-1.5,0.6-6.2,2.3-15.1,2.3
			c-19.1,0-31-11.5-31-30.8v-52.1h-19.1v-21.9h5.3c11,0,15.9-7,15.9-16.1v-15.5h22.3V183.9z"/>
		<path class="st0" d="M2065.7,253.3c0.9,9.3,7.9,17.6,21,17.6c10.2,0,15.5-5.5,15.5-11.9c0-5.5-3.8-9.8-12.1-11.5l-15.3-3.4
			c-18.3-4-27.8-15.9-27.8-30.2c0-18.1,16.6-33.4,38-33.4c28.9,0,38.2,18.7,39.9,28.9l-20.8,5.9c-0.9-5.9-5.3-15.5-19.1-15.5
			c-8.7,0-14.9,5.5-14.9,11.9c0,5.5,4,9.6,10.4,10.8l15.7,3.2c19.5,4.2,29.7,16.2,29.7,31.4c0,15.7-12.7,33.1-39.1,33.1
			c-30,0-41.4-19.5-42.7-31.2L2065.7,253.3z"/>
	</g>
</g>
<g>
	<text transform="matrix(1 0 0 1 2512.0906 491.5612)" class="st1 st2 st3">more</text>
</g>
<g>
	<g>
		<text transform="matrix(1 0 0 1 2088.605 491.561)" class="st4 st2 st3">+</text>
	</g>
	<g>
		<text transform="matrix(1 0 0 1 2439.4316 491.561)" class="st4 st2 st3">+</text>
	</g>
	<g>
		<text transform="matrix(1 0 0 1 1567.2388 491.561)" class="st4 st2 st3">+</text>
	</g>
	<g>
		<text transform="matrix(1 0 0 1 1250.0308 491.5612)" class="st4 st2 st3">+</text>
	</g>
</g>
<path class="st5" d="M524.4,621.6c0,0,476.7-73.4,685.5-33.6"/>
<g>
	<g>
		<path class="st1" d="M1453,505.9c-0.8-0.1-1.6,0.3-2,1V503h-1.2v9.2h1.2v-0.9c0.4,0.7,1.2,1.1,2,1c1.8,0,2.8-1.4,2.8-3.2
			C1455.8,507.2,1454.9,505.9,1453,505.9z M1452.8,511.3c-1,0-1.8-0.8-1.8-2.2c-0.1-1,0.6-2,1.6-2.1c0.1,0,0.1,0,0.2,0
			c1.1,0,1.8,0.8,1.8,2.1C1454.6,510.4,1453.9,511.3,1452.8,511.3z"/>
		<polygon class="st1" points="1459.4,510.3 1457.5,506.1 1456.2,506.1 1458.8,511.5 1457.3,514.7 1458.6,514.7 1462.6,506.1 
			1461.2,506.1 		"/>
		<path class="st1" d="M1466.4,512.6h1.1c0.5,0,0.9-0.4,0.9-0.9l0,0v-3.2h1.5c0.7,0,1.2-0.6,1.2-1.3v-0.6h-2.8v-2.2h3
			c0.6,0,1.1-0.5,1.1-1.1v-0.7h-6.2L1466.4,512.6z"/>
		<path class="st1" d="M1476.2,505.1c-0.7,0-1.4,0.2-2,0.7c-0.5,0.5-0.8,1.1-0.9,1.8h1.8c0-0.2,0.1-0.5,0.3-0.6
			c0.2-0.2,0.5-0.3,0.8-0.2c0.3,0,0.6,0.1,0.8,0.2c0.2,0.2,0.3,0.5,0.2,0.8v0.2l-1.9,0.3c-0.3,0-0.6,0.1-0.9,0.2
			c-0.3,0.1-0.5,0.2-0.7,0.4c-0.2,0.1-0.4,0.3-0.5,0.6c-0.1,0.3-0.2,0.6-0.2,0.9c0,0.6,0.2,1.1,0.6,1.5c0.4,0.4,1,0.6,1.6,0.6
			c0.9,0.1,1.7-0.4,2.1-1.1v0.2c0.1,0.5,0.4,0.8,0.9,0.8h0.8v-4.7c0.1-0.7-0.2-1.5-0.8-2C1477.7,505.3,1476.9,505.1,1476.2,505.1z
			 M1477.2,509.6c0,0.3-0.1,0.6-0.2,0.8c-0.1,0.2-0.3,0.4-0.5,0.5c-0.2,0.1-0.4,0.2-0.7,0.2c-0.2,0-0.4,0-0.6-0.2
			c-0.1-0.1-0.2-0.3-0.2-0.5s0-0.4,0.1-0.5c0.2-0.1,0.4-0.2,0.6-0.2l1.5-0.3V509.6L1477.2,509.6z"/>
		<path class="st1" d="M1481.7,502.1c-0.3,0-0.6,0.1-0.8,0.3s-0.4,0.5-0.4,0.8s0.1,0.6,0.3,0.8c0.2,0.2,0.5,0.3,0.8,0.3
			s0.6-0.1,0.8-0.3s0.4-0.5,0.4-0.8s-0.1-0.6-0.4-0.8C1482.3,502.2,1482,502.1,1481.7,502.1z"/>
		<path class="st1" d="M1480.8,512.6h0.9c0.5,0,0.9-0.4,0.9-0.9l0,0v-6.4h-1.9v7.3H1480.8z"/>
		<path class="st1" d="M1486.4,506.4l-0.2-1.1h-1.6v7.3h1c0.5,0,0.9-0.4,0.9-0.9l0,0v-2.8c0-0.5,0.2-1,0.6-1.3
			c0.4-0.3,0.9-0.5,1.4-0.5v-1.8c-0.5-0.1-1,0.1-1.4,0.3C1486.8,505.7,1486.6,506,1486.4,506.4z"/>
		<path class="st1" d="M1497.3,509.8l-0.1,0.8l-0.1-0.8l-1.2-4.3h-1.7l-1.2,4.3l-0.1,0.8l-0.1-0.8l-1.1-4.3h-2l2.2,7.3h1.2
			c0.4,0,0.8-0.3,0.9-0.7l1.1-3.6l1.1,4.2h1.3c0.4,0,0.8-0.3,0.9-0.7l2-6.6h-2L1497.3,509.8z"/>
		<path class="st1" d="M1502.4,502.1c-0.3,0-0.6,0.1-0.8,0.3c-0.2,0.2-0.4,0.5-0.4,0.8s0.1,0.6,0.4,0.8c0.2,0.2,0.5,0.3,0.8,0.3
			s0.6-0.1,0.8-0.3s0.4-0.5,0.4-0.8s-0.1-0.6-0.4-0.8C1503,502.2,1502.7,502.1,1502.4,502.1z"/>
		<path class="st1" d="M1501.5,512.6h0.9c0.5,0,0.9-0.4,0.9-0.9l0,0v-6.4h-1.9v7.3H1501.5z"/>
		<path class="st1" d="M1509.1,505.1c-0.4,0-0.8,0.1-1.2,0.3c-0.3,0.2-0.6,0.5-0.8,0.8l-0.1-1h-1.7v7.4h1c0.5,0,1-0.5,0.9-1v-2.8
			c0-0.5,0.1-0.9,0.4-1.3c0.2-0.3,0.5-0.5,0.9-0.4c0.3,0,0.6,0.1,0.8,0.3c0.2,0.3,0.3,0.6,0.2,1v4.2h0.9c0.6,0,1-0.4,1-1v-3.7
			c0-0.7-0.2-1.4-0.6-2C1510.4,505.3,1509.7,505.1,1509.1,505.1z"/>
		<path class="st1" d="M1518.3,506.1c-0.2-0.3-0.5-0.5-0.9-0.7c-0.4-0.2-0.9-0.2-1.3-0.2c-0.9,0-1.8,0.4-2.4,1.1
			c-0.7,0.7-1,1.7-1,2.7c0,0.7,0.1,1.3,0.4,1.9c0.3,0.6,0.7,1,1.3,1.4c0.5,0.3,1.1,0.5,1.7,0.5c0.9,0.1,1.8-0.4,2.3-1.1v0.2
			c0.1,0.4,0.5,0.7,1,0.7h0.8v-10.5h-1.9V506.1z M1518.3,509c0,0.5-0.2,1.1-0.6,1.5c-0.3,0.4-0.8,0.6-1.3,0.6s-1-0.2-1.3-0.6
			c-0.7-0.9-0.7-2.1,0-2.9c0.3-0.4,0.8-0.6,1.3-0.6c0.3,0,0.6,0.1,0.9,0.2c0.3,0.2,0.5,0.4,0.6,0.7c0.2,0.3,0.3,0.6,0.3,1v0.1
			H1518.3z"/>
		<path class="st1" d="M1526.8,509c-0.5-0.4-1.1-0.7-1.8-0.8c-0.3-0.1-0.7-0.2-1-0.3c-0.2-0.1-0.3-0.3-0.2-0.5
			c0-0.2,0.1-0.4,0.2-0.5c0.1-0.2,0.3-0.2,0.6-0.2c0.4-0.1,0.8,0.2,0.8,0.6c0,0.1,0,0.1,0,0.2h1.8c0-0.6-0.2-1.3-0.8-1.7
			c-0.5-0.4-1.2-0.6-1.9-0.6c-0.7-0.1-1.5,0.2-2,0.7c-0.5,0.4-0.7,1-0.7,1.7c0,0.5,0.2,1,0.6,1.4c0.5,0.4,1.1,0.6,1.7,0.7
			c0.4,0.1,0.7,0.2,1,0.3c0.2,0.1,0.3,0.3,0.2,0.6c0,0.2-0.1,0.4-0.2,0.5c-0.2,0.2-0.4,0.2-0.7,0.2s-0.5-0.1-0.8-0.2l-0.1-0.2
			c-0.2-0.3-0.5-0.5-0.8-0.5h-1.2c0,0.7,0.4,1.4,1.1,1.8c0.6,0.4,1.3,0.6,2,0.6c0.4,0,0.7,0,1.1-0.2c0.3-0.1,0.6-0.2,0.9-0.4
			c0.3-0.2,0.5-0.4,0.6-0.7c0.1-0.3,0.2-0.7,0.2-1.1C1527.3,509.9,1527.1,509.4,1526.8,509z"/>
	</g>
	<path class="st1" d="M1334.1,495.3h-9.5v-48.8h9.3v7c3.6-6.1,9.3-8.4,15-8.4c11.7,0,17.5,8.4,17.5,19.3v31h-9.5v-29.3
		c0-6.8-2.8-12.3-11.4-12.3c-7.5,0-11.4,6-11.4,13.4V495.3z"/>
	<path class="st1" d="M1460.5,494.5h-9.6l-19.8-48.8h10.8l13.9,37.6l14-37.6h10.2L1460.5,494.5z"/>
	<path class="st1" d="M1500.3,466.6l13.2-1.9c2.9-0.4,3.8-1.9,3.8-3.7c0-4.8-3.1-8.7-10.6-8.7c-6.7,0-10.5,4.2-11.1,9.8l-9.1-2.1
		c1-9.3,9.4-15.8,20-15.8c14.6,0,20.3,8.3,20.3,17.9v24.5c0,4.3,0.4,6.8,0.6,8h-9.3c-0.2-1.2-0.5-3-0.5-6.6c-2.1,3.5-7,8.1-15.7,8.1
		c-9.9,0-16.3-6.9-16.3-14.6C1485.5,472.7,1491.9,467.9,1500.3,466.6z M1517.3,473.6v-2.2l-14.9,2.2c-4.1,0.6-7.1,2.9-7.1,7.3
		c0,3.7,3,7.1,7.9,7.1C1511,488.1,1517.3,484.3,1517.3,473.6z"/>
</g>
<g>
	<path class="st1" d="M1977.8,504.3c-0.9,0-1.5,0.4-1.7,0.9v-3.4h-1v7.9h1v-0.8c0.3,0.6,0.9,0.9,1.7,0.9c1.6,0,2.4-1.2,2.4-2.8
		C1980.2,505.5,1979.4,504.3,1977.8,504.3z M1977.6,508.9c-0.9,0-1.6-0.7-1.6-1.9c0-1.1,0.7-1.8,1.6-1.8c1,0,1.6,0.7,1.6,1.8
		C1979.2,508.1,1978.6,508.9,1977.6,508.9z"/>
	<polygon class="st1" points="1983.4,508 1981.7,504.4 1980.5,504.4 1982.8,509.1 1981.5,511.9 1982.6,511.9 1986,504.4 
		1984.9,504.4 	"/>
	<path class="st1" d="M1989.4,510h0.9c0.4,0,0.8-0.3,0.8-0.8v-2.8h1.3c0.6,0,1.1-0.5,1.1-1.1v-0.5h-2.4V503h2.6c0.5,0,1-0.4,1-1
		v-0.6h-5.3V510z"/>
	<path class="st1" d="M1997.7,503.6c-0.7,0-1.3,0.2-1.7,0.6c-0.5,0.4-0.7,0.9-0.7,1.6h1.6c0-0.2,0.1-0.4,0.3-0.5s0.4-0.2,0.7-0.2
		s0.5,0,0.7,0.2c0.1,0.2,0.2,0.3,0.2,0.7v0.2l-1.6,0.3c-0.3,0-0.6,0.1-0.8,0.2c-0.2,0.1-0.4,0.2-0.6,0.3c-0.2,0.1-0.3,0.3-0.4,0.5
		c-0.1,0.2-0.1,0.4-0.1,0.7c0,0.6,0.2,1,0.5,1.3c0.4,0.3,0.8,0.5,1.4,0.5c0.8,0,1.4-0.3,1.8-1v0.2c0,0.4,0.4,0.7,0.8,0.7h0.7v-4.1
		c0-0.7-0.2-1.3-0.7-1.7S1998.5,503.6,1997.7,503.6z M1998.5,507.4c0,0.3-0.1,0.5-0.2,0.7c-0.1,0.2-0.3,0.3-0.4,0.4
		c-0.2,0.1-0.3,0.1-0.6,0.1s-0.4,0-0.5-0.1c-0.1-0.1-0.2-0.2-0.2-0.4c0-0.2,0-0.3,0.1-0.4c0.1-0.1,0.3-0.2,0.5-0.2l1.3-0.3V507.4z"
		/>
	<path class="st1" d="M2002.6,501c-0.3,0-0.5,0.1-0.7,0.3c-0.2,0.2-0.3,0.4-0.3,0.7s0,0.5,0.3,0.7c0.2,0.2,0.4,0.3,0.7,0.3
		s0.5-0.1,0.7-0.3c0.2-0.2,0.3-0.4,0.3-0.7s-0.1-0.5-0.3-0.7C2003.1,501.1,2002.8,501,2002.6,501z"/>
	<path class="st1" d="M2001.8,510h0.8c0.4,0,0.8-0.3,0.8-0.8v-5.5h-1.6V510z"/>
	<path class="st1" d="M2006.5,504.7l-0.2-1h-1.4v6.2h0.9c0.4,0,0.8-0.3,0.8-0.8v-2.4c0-0.6,0.2-0.9,0.5-1.2c0.3-0.3,0.7-0.4,1.2-0.4
		v-1.6c-0.5,0-0.9,0.1-1.2,0.3C2006.9,504.1,2006.7,504.4,2006.5,504.7z"/>
	<path class="st1" d="M2015.9,507.5l-0.1,0.7l-0.1-0.7l-1-3.8h-1.4l-1,3.8l-0.1,0.7l-0.1-0.7l-1-3.8h-1.7l1.9,6.2h1
		c0.3,0,0.7-0.2,0.8-0.6l1-3.1l1.1,3.7h1.1c0.3,0,0.7-0.2,0.8-0.6l1.7-5.6h-1.7L2015.9,507.5z"/>
	<path class="st1" d="M2020.3,501c-0.3,0-0.5,0.1-0.7,0.3c-0.2,0.2-0.3,0.4-0.3,0.7c0,0.3,0.1,0.5,0.3,0.7c0.2,0.2,0.4,0.3,0.7,0.3
		s0.5-0.1,0.7-0.3s0.3-0.4,0.3-0.7s-0.1-0.5-0.3-0.7C2020.8,501.1,2020.6,501,2020.3,501z"/>
	<path class="st1" d="M2019.5,510h0.8c0.4,0,0.8-0.3,0.8-0.8v-5.5h-1.6V510z"/>
	<path class="st1" d="M2026,503.6c-0.4,0-0.7,0.1-1,0.3c-0.3,0.2-0.5,0.4-0.7,0.7l-0.1-0.8h-1.4v6.2h0.8c0.4,0,0.8-0.3,0.8-0.8v-2.4
		c0-0.5,0.1-0.9,0.3-1.1s0.4-0.4,0.8-0.4c0.3,0,0.5,0.1,0.7,0.3c0.1,0.2,0.2,0.5,0.2,0.8v3.7h0.8c0.4,0,0.8-0.3,0.8-0.8v-3.2
		c0-0.7-0.2-1.3-0.5-1.7C2027.2,503.8,2026.7,503.6,2026,503.6z"/>
	<path class="st1" d="M2034,504.4c-0.2-0.2-0.4-0.4-0.7-0.6c-0.3-0.1-0.7-0.2-1.1-0.2c-0.8,0-1.5,0.3-2.1,0.9
		c-0.6,0.6-0.8,1.4-0.8,2.3c0,0.6,0.1,1.1,0.3,1.7c0.3,0.5,0.6,0.9,1,1.2s1,0.4,1.5,0.4c0.9,0,1.6-0.3,2-1l0,0.2
		c0.1,0.3,0.4,0.7,0.8,0.7h0.7v-9h-1.6V504.4z M2033.9,506.9c0,0.5-0.2,1-0.5,1.3c-0.3,0.3-0.7,0.5-1.1,0.5c-0.5,0-0.8-0.1-1.1-0.5
		c-0.3-0.3-0.4-0.7-0.4-1.3s0.1-1,0.4-1.3s0.7-0.5,1.1-0.5c0.3,0,0.5,0,0.7,0.2c0.2,0.1,0.4,0.3,0.6,0.6
		C2033.9,506.1,2033.9,506.4,2033.9,506.9L2033.9,506.9z"/>
	<path class="st1" d="M2041.3,506.9c-0.3-0.3-0.8-0.5-1.6-0.7c-0.4-0.1-0.7-0.2-0.9-0.3c-0.1-0.1-0.2-0.2-0.2-0.4
		c0-0.2,0-0.3,0.2-0.4c0.1-0.1,0.3-0.2,0.5-0.2c0.4,0,0.7,0.2,0.7,0.7h1.6c0-0.6-0.2-1.1-0.7-1.4c-0.4-0.3-1-0.5-1.6-0.5
		c-0.7,0-1.3,0.2-1.7,0.6c-0.4,0.4-0.6,0.9-0.6,1.4c0,0.5,0.1,0.9,0.5,1.2c0.3,0.3,0.8,0.5,1.5,0.6c0.4,0.1,0.7,0.2,0.9,0.3
		c0.1,0.1,0.2,0.3,0.2,0.5c0,0.2-0.1,0.3-0.2,0.4c-0.1,0.1-0.3,0.2-0.6,0.2s-0.5-0.1-0.7-0.2c0,0-0.1-0.1-0.1-0.1
		c-0.2-0.3-0.4-0.4-0.7-0.4h-1c0,0.6,0.3,1.1,0.9,1.5c0.4,0.3,1,0.5,1.7,0.5c0.3,0,0.6,0,0.9-0.1c0.3,0,0.5-0.2,0.7-0.3
		c0.2-0.1,0.4-0.3,0.5-0.6s0.2-0.6,0.2-0.9C2041.8,507.6,2041.6,507.2,2041.3,506.9z"/>
	<g>
		<path class="st1" d="M2011.4,483.3c0.7,4.7,5.5,12.1,16.9,12.1c10.3,0,15.2-7,15.2-12.9c0-6.1-4-10.7-11.5-12.3l-6.7-1.5
			c-3.2-0.7-4.8-2.5-4.8-5c0-2.8,2.8-5.5,6.9-5.5c6.6,0,8.3,4.8,8.6,6.9l7.2-2.7c-0.9-3.7-4.4-11.1-15.8-11.1
			c-8.1,0-14.8,6-14.8,13.1c0,5.9,3.9,10.3,10.4,11.7l7.1,1.6c3.5,0.8,5.4,2.8,5.4,5.4c0,2.9-2.5,5.5-7.1,5.5
			c-5.9,0-9.2-3.5-9.7-7.8L2011.4,483.3z M2007.1,452.6h-11.2l-18,18.4v-39.4h-8v62.5h8v-12.5l5.8-5.8l13.6,18.3h10.2l-18-24
			L2007.1,452.6z M1941.6,458.8c7.1,0,10.1,4.7,11.1,8.8l7.3-3.1c-1.7-6.3-7.4-13.2-18.5-13.2c-11.8,0-20.9,9.1-20.9,22
			c0,12.6,8.9,22.1,21,22.1c10.8,0,16.8-7,18.7-13l-7.2-3.1c-0.9,3.3-3.8,8.6-11.6,8.6c-6.7,0-12.7-5.1-12.7-14.6
			C1929,463.6,1935,458.8,1941.6,458.8 M1892.5,451.3c-12.4,0-21.2,9.4-21.2,22c0,12.7,8.8,22.1,21.2,22.1
			c12.4,0,21.2-9.4,21.2-22.1C1913.8,460.7,1905,451.3,1892.5,451.3 M1892.5,488.1c-6.9,0-13-5.2-13-14.9c0-9.6,6-14.8,13-14.8
			c6.9,0,13,5.2,13,14.8C1905.5,483,1899.4,488.1,1892.5,488.1 M1860.9,431.6h-8.1v62.5h8.1V431.6z M1829.1,436.8
			c0,3.2,2.6,5.8,5.8,5.8c3.3,0,5.9-2.6,5.9-5.8c0-3.3-2.6-5.9-5.9-5.9C1831.7,431,1829.1,433.6,1829.1,436.8 M1839,452.6h-8v41.5h8
			V452.6z M1809.3,488.5c0,2.5,0.3,4.7,0.4,5.6h7.9c-0.1-0.7-0.4-3.7-0.4-7.7v-54.8h-8v26.9c-1.4-3.4-5.4-7-12.7-7
			c-11.7,0-19.7,10-19.7,21.8c0,12.4,7.5,22,19.7,22c6.5,0,10.9-3.5,12.9-7.4V488.5L1809.3,488.5z M1785,473.2
			c0-8.5,4.8-14.6,12.3-14.6c7.4,0,11.9,5.9,11.9,14.4c0,8.6-4.6,15-12,15C1789.4,488.1,1785,481.7,1785,473.2 M1766.3,431.6h-8.1
			v62.5h8.1V431.6z M1696.7,494.1v-30h-29.3v7.6h21.2c-0.3,6.3-5.3,16-18.9,16c-11,0-21.3-8-21.3-24.3c0-16.2,10.7-24.1,21.7-24.1
			c9.5,0,16.7,5.2,19.4,14l7.7-3.3c-3.5-11.1-13.8-18.5-27.1-18.5c-15.1,0-30.3,11.1-30.3,31.9c0,20.7,14.3,32,29.7,32
			c10.3,0,16.9-5.1,19.6-9.9l0.8,8.6C1689.8,494.1,1696.7,494.1,1696.7,494.1z"/>
		<g>
			<path class="st1" d="M1740.6,509.4c-9.3,0-21.3-12.9-29.5-27.8c-4.9-8.8-8.2-17.9-9.5-25.4c-1.8-11.2,1.6-15.6,4.7-17.4
				c3.1-1.7,8.7-2.3,17.2,5.2c5.8,5,11.7,12.7,16.6,21.5c9.6,17.3,14.3,37.5,4.7,42.8C1743.6,509,1742.1,509.4,1740.6,509.4z
				 M1710.7,444.6c-0.4,0-0.7,0.1-1,0.2c-1.3,0.7-2.2,4.2-1.3,10.3c1.1,6.8,4.2,15,8.7,23.2c10.3,18.6,21.5,25.6,24.4,24
				c2.9-1.6,2.9-14.9-7.4-33.4c-4.5-8.1-9.9-15.1-15.1-19.6C1715.4,445.9,1712.4,444.6,1710.7,444.6z"/>
		</g>
		<polygon class="st6" points="1725.6,495.2 1728.5,497.4 1730.7,494.5 1734,496 1735.4,492.7 1739,493.4 1739.6,489.9 
			1743.2,489.6 1743,486 1746.4,485 1745.4,481.6 1748.4,479.7 1746.6,476.6 1749.1,474.1 1746.6,471.5 1748.4,468.5 1745.4,466.6 
			1746.4,463.2 1743,462.1 1743.2,458.5 1739.6,458.3 1739,454.8 1735.4,455.4 1734,452.1 1730.7,453.6 1728.5,450.8 1725.6,453 
			1722.8,450.8 1720.6,453.6 1717.3,452.1 1715.9,455.4 1712.3,454.8 1711.7,458.3 1708.1,458.5 1708.3,462.1 1704.9,463.2 
			1705.9,466.6 1702.9,468.5 1704.7,471.5 1702.2,474.1 1704.7,476.6 1702.9,479.7 1705.9,481.6 1704.9,485 1708.3,486.1 
			1708.1,489.6 1711.7,489.9 1712.3,493.4 1715.9,492.7 1717.3,496 1720.6,494.5 1722.8,497.4 		"/>
		<g>
			<path class="st7" d="M1725.6,491.9c9.8,0,17.8-8,17.8-17.8c0-9.8-8-17.8-17.8-17.8c-9.8,0-17.8,8-17.8,17.8
				C1707.8,483.9,1715.8,491.9,1725.6,491.9"/>
			<g>
				<path class="st1" d="M1740.6,509.4c-9.6,0-21.7-13.7-29.5-27.8c-4.9-8.8-8.2-17.9-9.5-25.4c-1.8-11.2,1.6-15.6,4.7-17.4l3.3,6
					c-1.3,0.7-2.2,4.2-1.3,10.3c1.1,6.8,4.2,15,8.7,23.2c9.3,16.9,20.4,25.4,24.2,24.1l2.2,6.5
					C1742.6,509.2,1741.6,509.4,1740.6,509.4z"/>
			</g>
		</g>
	</g>
</g>
<g>
	<path class="st1" d="M2177.7,512.3v-64.9h8.8v7.2c2.5-4.7,8.1-8.3,15.6-8.3c13.9,0,21.4,10.7,21.4,24.3c0,13.9-8,24.6-21.7,24.6
		c-7.1,0-12.6-3.4-15.1-7.5v24.7L2177.7,512.3L2177.7,512.3z M2200.4,454.3c-8.3,0-13.9,7-13.9,16.3c0,9.6,5.5,16.4,13.9,16.4
		c8.4,0,13.8-6.9,13.8-16.4C2214.2,461.3,2208.9,454.3,2200.4,454.3z"/>
	<path class="st1" d="M2235.1,493.9v-70h9.1v70.1L2235.1,493.9L2235.1,493.9z"/>
	<path class="st1" d="M2276.1,495.3c-10.8,0-17.4-8.1-17.4-18.7v-29.3h9.1v27.9c0,6.4,2.9,12,10.5,12c7.3,0,11-4.9,11-11.9v-28h9.1
		v38c0,3.7,0.3,7,0.5,8.6h-8.7c-0.2-1.1-0.4-3.7-0.4-5.6C2287.3,493.1,2281.5,495.3,2276.1,495.3z"/>
	<path class="st1" d="M2326.2,447.4h10.1v8.2h-10.1v24.2c0,4.3,1.7,6.4,6.5,6.4c1.2,0,2.8-0.2,3.6-0.4v7.7c-0.8,0.3-3.1,0.9-6.2,0.9
		c-7.9,0-13-4.9-13-13.3v-25.5h-8.9v-8.2h2.5c5.1,0,7.1-3.1,7.1-7.1v-7.6h8.3V447.4z"/>
	<rect x="2353.9" y="456.8" class="st8" width="26.1" height="26.1"/>
	<g id="XMLID_3_">
		<g>
			<path class="st1" d="M2367.8,445.7c15.1,0,25.8,10.5,25.8,24.7c0,14.2-10.7,24.8-25.8,24.8c-15.1,0-25.8-10.5-25.8-24.8
				C2342,456.2,2352.7,445.7,2367.8,445.7z M2384.9,470.1c0-9.4-7.7-17.1-17.1-17.1s-17.1,7.7-17.1,17.1c0,9.4,7.7,17.1,17.1,17.1
				C2377.2,487.2,2384.9,479.6,2384.9,470.1z"/>
		</g>
	</g>
	<g>
		<path class="st1" d="M2320.6,504.5c-1,0-1.7,0.5-1.9,1v-3.8h-1.1v8.8h1.1v-0.9c0.4,0.6,1,1,1.9,1c1.7,0,2.7-1.4,2.7-3.1
			C2323.3,505.9,2322.4,504.5,2320.6,504.5z M2320.4,509.7c-1,0-1.7-0.8-1.7-2.1c0-1.3,0.7-2.1,1.7-2.1c1.1,0,1.7,0.8,1.7,2.1
			C2322.1,508.9,2321.4,509.7,2320.4,509.7z"/>
		<polygon class="st1" points="2326.8,508.7 2324.9,504.7 2323.6,504.7 2326.1,509.9 2324.7,513 2325.9,513 2329.7,504.7 
			2328.5,504.7 		"/>
		<path class="st1" d="M2333.4,510.9h1c0.5,0,0.9-0.4,0.9-0.9V507h1.5c0.7,0,1.2-0.6,1.2-1.2v-0.5h-2.7v-2.1h2.9
			c0.6,0,1.1-0.5,1.1-1.1v-0.7h-5.9V510.9z"/>
		<path class="st1" d="M2342.7,503.8c-0.8,0-1.5,0.2-1.9,0.7c-0.5,0.4-0.8,1-0.8,1.7h1.7c0-0.2,0.1-0.4,0.3-0.6s0.4-0.2,0.7-0.2
			c0.3,0,0.6,0,0.7,0.2c0.1,0.2,0.2,0.4,0.2,0.7v0.2l-1.8,0.3c-0.3,0-0.6,0.1-0.9,0.2c-0.2,0.1-0.5,0.2-0.7,0.4
			c-0.2,0.1-0.4,0.3-0.5,0.6s-0.1,0.5-0.1,0.8c0,0.6,0.2,1.2,0.6,1.5c0.4,0.4,0.9,0.6,1.6,0.6c0.9,0,1.6-0.3,2-1.1v0.2
			c0,0.4,0.4,0.8,0.9,0.8h0.7v-4.6c0-0.8-0.2-1.5-0.7-1.9C2344.2,504,2343.6,503.8,2342.7,503.8z M2343.7,508c0,0.3-0.1,0.6-0.2,0.8
			c-0.1,0.2-0.3,0.3-0.5,0.4c-0.2,0.1-0.4,0.1-0.6,0.1c-0.2,0-0.4,0-0.6-0.1c-0.1-0.1-0.2-0.2-0.2-0.4c0-0.2,0-0.4,0.1-0.5
			c0.1-0.1,0.3-0.2,0.6-0.2l1.4-0.3V508z"/>
		<path class="st1" d="M2348.1,500.9c-0.3,0-0.5,0.1-0.7,0.3c-0.2,0.2-0.3,0.5-0.3,0.8c0,0.3,0,0.5,0.3,0.7c0.2,0.2,0.5,0.3,0.8,0.3
			c0.3,0,0.6-0.1,0.8-0.3c0.2-0.2,0.3-0.4,0.3-0.7c0-0.3-0.1-0.6-0.3-0.8C2348.7,501,2348.4,500.9,2348.1,500.9z"/>
		<path class="st1" d="M2347.2,510.9h0.9c0.5,0,0.9-0.4,0.9-0.9V504h-1.8V510.9z"/>
		<path class="st1" d="M2352.5,505l-0.2-1.1h-1.6v7h1c0.5,0,0.9-0.4,0.9-0.9v-2.7c0-0.6,0.2-1,0.5-1.3c0.3-0.3,0.8-0.4,1.4-0.4v-1.7
			c-0.5,0-1,0.1-1.3,0.3C2352.9,504.4,2352.7,504.7,2352.5,505z"/>
		<path class="st1" d="M2362.9,508.2l-0.1,0.7l-0.1-0.7l-1.2-4.2h-1.6l-1.2,4.2l-0.1,0.7l-0.1-0.7l-1.1-4.2h-1.9l2.1,6.9h1.1
			c0.4,0,0.7-0.2,0.9-0.6l1.1-3.5l1.3,4.1h1.2c0.4,0,0.8-0.2,0.9-0.6l1.9-6.3h-1.9L2362.9,508.2z"/>
		<path class="st1" d="M2367.9,500.9c-0.3,0-0.6,0.1-0.8,0.3c-0.2,0.2-0.3,0.4-0.3,0.7c0,0.3,0.1,0.6,0.3,0.7
			c0.2,0.2,0.5,0.3,0.8,0.3c0.3,0,0.5-0.1,0.8-0.3c0.2-0.2,0.3-0.4,0.3-0.7s-0.1-0.5-0.3-0.7C2368.4,501,2368.2,500.9,2367.9,500.9z
			"/>
		<path class="st1" d="M2367,510.9h0.9c0.5,0,0.9-0.4,0.9-0.9V504h-1.8V510.9z"/>
		<path class="st1" d="M2374.2,503.8c-0.5,0-0.8,0.1-1.2,0.3c-0.3,0.2-0.5,0.4-0.7,0.8l-0.1-0.9h-1.6v7h0.9c0.5,0,0.9-0.4,0.9-0.9
			v-2.7c0-0.6,0.1-1,0.3-1.3s0.5-0.4,0.9-0.4c0.3,0,0.6,0.1,0.7,0.3c0.1,0.2,0.2,0.5,0.2,0.9v4.1h0.9c0.5,0,0.9-0.4,0.9-0.9v-3.6
			c0-0.8-0.2-1.4-0.6-1.9C2375.5,504,2375,503.8,2374.2,503.8z"/>
		<path class="st1" d="M2383.1,504.7c-0.2-0.2-0.4-0.4-0.8-0.6c-0.4-0.1-0.8-0.2-1.3-0.2c-0.9,0-1.7,0.3-2.3,1
			c-0.6,0.7-0.9,1.6-0.9,2.6c0,0.7,0.1,1.3,0.4,1.8c0.3,0.6,0.7,1,1.2,1.3c0.5,0.3,1.1,0.5,1.7,0.5c1,0,1.7-0.3,2.2-1.1l0,0.2
			c0.1,0.4,0.4,0.7,0.9,0.7h0.8v-10h-1.8V504.7z M2383,507.5c0,0.6-0.2,1.1-0.5,1.4s-0.7,0.5-1.2,0.5c-0.5,0-0.9-0.1-1.3-0.5
			c-0.3-0.3-0.5-0.8-0.5-1.4s0.1-1.1,0.5-1.4c0.3-0.3,0.8-0.5,1.3-0.5c0.3,0,0.6,0,0.8,0.2c0.2,0.1,0.4,0.3,0.6,0.6
			C2382.9,506.6,2383,507,2383,507.5L2383,507.5z"/>
		<path class="st1" d="M2391.2,507.5c-0.3-0.3-0.9-0.6-1.7-0.7c-0.5-0.1-0.8-0.2-1-0.3c-0.1-0.1-0.2-0.2-0.2-0.5
			c0-0.2,0-0.3,0.2-0.5c0.1-0.1,0.3-0.2,0.5-0.2c0.5,0,0.8,0.2,0.8,0.8h1.7c0-0.7-0.2-1.2-0.7-1.6c-0.4-0.4-1.1-0.6-1.8-0.6
			c-0.8,0-1.5,0.2-1.9,0.6c-0.4,0.4-0.7,1-0.7,1.6c0,0.6,0.1,1,0.5,1.4c0.3,0.3,0.9,0.5,1.7,0.7c0.4,0.1,0.8,0.2,1,0.3
			c0.1,0.1,0.2,0.3,0.2,0.5c0,0.2-0.1,0.4-0.2,0.5c-0.1,0.1-0.3,0.2-0.6,0.2c-0.3,0-0.5-0.1-0.7-0.2c0,0-0.1-0.1-0.1-0.1
			c-0.2-0.3-0.4-0.5-0.8-0.5h-1.1c0,0.7,0.3,1.3,1,1.7c0.4,0.4,1.1,0.6,1.9,0.6c0.4,0,0.7,0,1-0.1c0.3,0,0.6-0.2,0.8-0.4
			c0.2-0.1,0.4-0.4,0.6-0.7s0.2-0.6,0.2-1C2391.8,508.2,2391.6,507.8,2391.2,507.5z"/>
	</g>
	<path class="st9" d="M2379,461.3c-0.1,0.1-0.1,0.1-0.1,0.2c-0.1,0.5-0.4,0.9-0.6,1.4c-0.3,0.8,0.1,2.7-0.7,3.2
		c-1,0.6-2.1-1.3-3-2.1c-0.9-0.8-2.5-0.4-3.6-0.7c-0.9-0.2-1.8-0.9-2.8-0.6c-0.8,0.2-1.6,1.3-2.4,1.6c0-0.4,0-0.8-0.4-0.5
		c-0.9,0.7-1.6,1.5-2.5,2.1c-0.1,0.1-0.1-0.1-0.2,0c-0.1,0.2-1.2,0.1-1.2,0.4c0,1-0.1,2.4-1,2.8c-0.1,0-0.4-1.4-0.5-1.5
		c-0.1,0-0.9,1-1,0.8c-0.7-0.8-1.3-1.2-2.3-1.7c-0.5-0.3-1.8,0.6-2.2,0.2c-0.1-0.1-0.2-0.2-0.3-0.3c-0.3,1.2-0.5,2.5-0.5,3.7
		c0,7.9,6.4,14.3,14.3,14.3c7.9,0,14.3-6.4,14.3-14.3C2382.2,466.8,2381,463.7,2379,461.3z"/>
	<path class="st1" d="M2361.5,466.1c0,1-0.1,2.4-1,2.8c-0.1,0-0.4-1.4-0.5-1.5c-0.1,0-0.9,1-1,0.8c-0.7-0.8-1.3-1.2-2.3-1.7
		c-0.5-0.3-1.8,0.6-2.2,0.2c-0.1-0.1-0.2-0.2-0.3-0.3c1.7-6.1,7.2-10.5,13.8-10.5c4.5,0,8.5,2.1,11.1,5.3c0,0.1-0.1,0.1-0.1,0.2
		c-0.1,0.5-0.4,0.9-0.6,1.4c-0.3,0.8,0,2.7-0.7,3.2c-1,0.6-2.1-1.3-3-2.1c-0.9-0.8-2.5-0.4-3.6-0.7c-0.9-0.2-1.8-0.9-2.8-0.6
		c-0.8,0.2-1.6,1.3-2.4,1.6c0-0.4,0-0.8-0.4-0.5c-0.9,0.7-1.7,1.5-2.5,2.1c-0.1,0.1-0.1-0.1-0.2,0
		C2362.6,466,2361.5,465.9,2361.5,466.1z"/>
	<path class="st1" d="M2376.5,472.6c-1.1-0.2-2.1,0.1-2.9,0.8c-0.4-0.9-1.3-1.7-2.4-1.9c-1.8-0.4-3.6,0.8-3.9,2.6
		c-0.7,3.6,3.9,8.1,4.1,8.3c0.1,0.1,0.2,0.1,0.3,0.2c0.1,0,0.2,0,0.4,0c0.2-0.1,6.3-2.4,7-6C2379.5,474.8,2378.4,473,2376.5,472.6z"
		/>
</g>
<g>
	<g class="st10">
		<path class="st11" d="M611.3,540V410.3h17.6v14.5c5-9.3,16.1-16.6,31.1-16.6c27.8,0,42.7,21.5,42.7,48.5
			c0,27.7-16.1,49.1-43.3,49.1c-14.3,0-25.1-6.8-30.2-15.1V540H611.3z M656.8,424.2c-16.6,0-27.7,13.9-27.7,32.5
			c0,19.1,11,32.9,27.7,32.9c16.8,0,27.5-13.7,27.5-32.9C684.2,438.1,673.8,424.2,656.8,424.2z"/>
		<path class="st11" d="M813.4,456.7c0,28.4-19.7,49.5-47.6,49.5c-27.8,0-47.6-21.1-47.6-49.5c0-28.2,19.7-49.3,47.6-49.3
			C793.7,407.4,813.4,428.4,813.4,456.7z M794.8,456.7c0-21.5-13.5-33.1-29-33.1c-15.5,0-29,11.6-29,33.1c0,21.7,13.5,33.3,29,33.3
			C781.3,489.9,794.8,478.3,794.8,456.7z"/>
		<path class="st11" d="M836.6,503.3v-140h18.2v140H836.6z"/>
		<path class="st11" d="M908.2,450.1l25.1-3.7c5.6-0.8,7.2-3.7,7.2-7c0-9.1-6-16.6-20.1-16.6c-12.8,0-19.9,7.9-21.1,18.8l-17.4-4.1
			c1.9-17.8,18-30.2,38.1-30.2c27.8,0,38.7,15.9,38.7,34V488c0,8.1,0.8,13,1.2,15.3H942c-0.4-2.3-1-5.8-1-12.6
			c-4.1,6.6-13.3,15.5-30,15.5c-19,0-31.1-13.1-31.1-27.8C879.9,461.7,892.1,452.4,908.2,450.1z M940.5,463.4v-4.3l-28.4,4.3
			c-7.7,1.2-13.5,5.6-13.5,13.9c0,7,5.8,13.5,15.1,13.5C928.5,490.9,940.5,483.7,940.5,463.4z"/>
		<path class="st11" d="M1038.5,428.6c-2.7-0.4-5.4-0.6-7.9-0.6c-15.3,0-25.5,8.1-25.5,28.6v46.6h-18.2v-93h17.8v16.2
			c6.8-14.3,18.4-17.8,27.8-17.8c2.5,0,5,0.4,6,0.6V428.6z"/>
		<path class="st11" d="M1066.7,361.9c7.3,0,13.2,5.8,13.2,13.1c0,7.2-5.8,13-13.2,13c-7.2,0-13-5.8-13-13
			C1053.8,367.7,1059.6,361.9,1066.7,361.9z M1057.8,503.3v-93h18v93H1057.8z"/>
		<path class="st11" d="M1114.5,473.3c1.2,9.7,8.5,17.4,21.7,17.4c10.2,0,15.9-5.8,15.9-12.4c0-5.8-4.3-10.2-12-12l-15.9-3.5
			c-14.5-3.1-23.2-13-23.2-26.1c0-15.9,14.9-29.4,33.1-29.4c25.5,0,33.5,16.6,35.4,24.9l-16.1,6c-0.8-4.8-4.6-15.5-19.3-15.5
			c-9.3,0-15.5,6-15.5,12.4c0,5.6,3.5,9.7,10.6,11.2l15.1,3.3c16.8,3.7,25.7,13.9,25.7,27.7c0,13.1-11,28.8-34,28.8
			c-25.5,0-36.4-16.4-37.9-27.1L1114.5,473.3z"/>
	</g>
	<circle class="st11" cx="765.9" cy="456.2" r="49.7"/>
	<circle class="st12" cx="787.6" cy="478.1" r="2.8"/>
	<circle class="st12" cx="744.8" cy="478.5" r="2.8"/>
	<g>
		<path class="st13" d="M750.9,431.5c0.6,0.8,1.2,1.6,1.7,2.3c3,3.8,5.9,7.7,8.9,11.5c0.3,0.3,0.3,0.8,0.2,1.1
			c-0.9,1.5-1.8,3-2.7,4.5c-1.3,2-2.5,4.2-3.8,6.2c0,0,0,0.1-0.1,0.2c0.6-0.4,1.2-0.7,1.7-1.1c3-1.8,6-3.7,9-5.5
			c0.4-0.2,0.8-0.1,1.3,0.2c2.8,2.1,5.6,4.4,8.4,6.5c1.7,1.3,3.2,2.5,4.9,3.8c0.1,0.1,0.2,0.2,0.4,0.2c-3.6-4.6-7.1-9.1-10.7-13.7
			c-0.3-0.4-0.4-0.8-0.2-1.1c1.1-1.8,2.2-3.6,3.3-5.4c1.1-1.7,2.2-3.6,3.2-5.4c-0.4,0.2-0.7,0.4-1.1,0.7c-2.2,1.4-4.5,2.7-6.7,4.1
			c-1,0.6-1.9,1.2-3,1.8c-0.4,0.3-0.8,0.2-1.3-0.2c-3.1-2.4-6.1-4.8-9.2-7.2C753.9,433.7,752.5,432.6,750.9,431.5
			C751,431.5,750.9,431.5,750.9,431.5z"/>
		<path class="st14" d="M772.7,439.7c-0.4,0.3-0.7,0.5-1.1,0.8c-1.8,1.3-3.6,2.5-5.4,3.8c-0.2,0.1-0.4,0.1-0.6,0
			c-0.9-0.6-1.7-1.3-2.6-1.8c-1.3-0.9-2.5-1.7-3.7-2.6c0,0,0,0-0.1-0.1c0.3,0.4,0.5,0.7,0.7,1.1c1.3,1.8,2.5,3.6,3.8,5.4
			c0.2,0.2,0.1,0.4,0,0.7c-1,1.4-1.8,2.6-2.8,4c-0.6,0.8-1.1,1.6-1.7,2.3c0,0.1-0.1,0.1-0.1,0.2c2.1-1.6,4.3-3,6.5-4.6
			c0.2-0.1,0.4-0.1,0.6,0c1.1,0.8,2.1,1.6,3.2,2.2c1.1,0.8,2.1,1.6,3.2,2.2c-0.2-0.2-0.3-0.4-0.5-0.7c-1-1.4-1.8-2.6-2.8-4
			c-0.4-0.6-0.9-1.2-1.3-1.7c-0.2-0.2-0.2-0.4,0-0.7c1.1-1.5,2-2.9,3.1-4.4C771.7,441,772.2,440.3,772.7,439.7L772.7,439.7z"/>
		<path class="st14" d="M765.9,434.5c-0.1,0.6-0.2,1.1-0.3,1.7c-0.5,2.7-1,5.4-1.4,8.2c0,0.2-0.3,0.5-0.5,0.5
			c-1.4,0.2-2.7,0.5-4,0.7c-1.8,0.3-3.7,0.7-5.6,1c0,0-0.1,0-0.2,0.1c0.6,0.1,1.1,0.2,1.6,0.3c2.7,0.5,5.4,1,8.2,1.5
			c0.3,0.1,0.5,0.3,0.6,0.6c0.4,2,0.7,4,1.1,6c0.2,1.2,0.4,2.3,0.6,3.5c0,0.1,0,0.2,0.1,0.3c0.6-3.3,1.2-6.5,1.7-9.8
			c0-0.3,0.3-0.5,0.5-0.5c1.7-0.3,3.2-0.6,4.9-0.9c1.7-0.3,3.2-0.6,4.9-0.9c-0.3-0.1-0.7-0.1-1-0.2c-2-0.4-4-0.7-6-1.1
			c-0.9-0.2-1.7-0.3-2.7-0.5c-0.4-0.1-0.6-0.2-0.6-0.6c-0.4-2.2-0.8-4.4-1.2-6.6C766.2,436.6,766.1,435.5,765.9,434.5L765.9,434.5z"
			/>
		<path class="st15" d="M765.9,439.7c-0.1,0.3-0.1,0.6-0.2,0.9c-0.3,1.6-0.5,3.1-0.8,4.7c0,0.1-0.2,0.3-0.3,0.3
			c-0.8,0.1-1.6,0.3-2.2,0.4c-1.1,0.2-2.1,0.4-3.2,0.6c0,0,0,0-0.1,0c0.3,0.1,0.6,0.1,0.9,0.2c1.6,0.3,3.1,0.5,4.7,0.8
			c0.2,0,0.3,0.2,0.3,0.3c0.2,1.2,0.4,2.2,0.6,3.4c0.1,0.7,0.2,1.4,0.3,1.9v0.1c0.3-1.8,0.7-3.7,1-5.5c0-0.2,0.1-0.3,0.3-0.3
			c0.9-0.2,1.8-0.3,2.7-0.5c0.9-0.2,1.8-0.3,2.7-0.5c-0.2,0-0.4-0.1-0.6-0.1c-1.2-0.2-2.2-0.4-3.4-0.6c-0.5-0.1-1-0.2-1.6-0.3
			c-0.2,0-0.3-0.1-0.4-0.3c-0.2-1.3-0.4-2.5-0.7-3.7C766.1,440.8,766,440.3,765.9,439.7L765.9,439.7z"/>
	</g>
	<path class="st16" d="M748.6,465.4l-13.1,10.8c-0.8,0.7-0.4,1.9,0.7,1.9h26.2c1.1,0,1.6-1.4,0.7-1.9l-13.1-10.8
		C749.5,465.1,749,465.1,748.6,465.4z"/>
	<path class="st16" d="M782.8,465.4l-13.1,10.8c-0.8,0.7-0.4,1.9,0.7,1.9h26.2c1.1,0,1.6-1.4,0.7-1.9l-13.1-10.8
		C783.7,465.1,783.1,465.1,782.8,465.4z"/>
	<path class="st17" d="M764.7,462.4l-23.1,18.9c-1.5,1.2-0.6,3.5,1.3,3.5h46.2c1.8,0,2.7-2.3,1.3-3.5l-23.1-18.9
		C766.4,461.8,765.4,461.8,764.7,462.4z"/>
	<path class="st18" d="M765,471.8l-17.7,14.5c-1.1,0.9-0.5,2.7,1,2.7h35.4c1.5,0,2-1.7,1-2.7l-17.8-14.5
		C766.3,471.3,765.5,471.3,765,471.8z"/>
	<path class="st17" d="M765.2,474.7l-14.8,12c-0.9,0.8-0.4,2.2,0.8,2.2h29.4c1.2,0,1.7-1.5,0.8-2.2l-14.6-12
		C766.3,474.3,765.7,474.3,765.2,474.7z"/>
	<circle class="st19" cx="765.9" cy="456.2" r="34.9"/>
	<g>
		<path class="st20" d="M1020.6,524.4c-2,0-3.4,1-3.9,2v-7.7h-2.3v18h2.3V535c0.7,1.3,2.1,2.1,3.9,2.1c3.5,0,5.6-2.8,5.6-6.3
			C1026,527.2,1024.2,524.4,1020.6,524.4z M1020.1,534.9c-2.1,0-3.5-1.7-3.5-4.3c0-2.6,1.5-4.2,3.5-4.2c2.2,0,3.5,1.6,3.5,4.2
			C1023.7,533.2,1022.3,534.9,1020.1,534.9z"/>
		<polygon class="st20" points="1033.2,533 1029.5,524.8 1026.8,524.8 1031.9,535.4 1028.9,541.7 1031.5,541.7 1039.2,524.8 
			1036.7,524.8 		"/>
		<path class="st20" d="M1046.8,537.4h2.1c1,0,1.8-0.8,1.8-1.8v-6.3h3c1.4,0,2.5-1.2,2.5-2.5v-1.1h-5.5v-4.4h6c1.2,0,2.2-1,2.2-2.2
			v-1.4h-12V537.4z"/>
		<path class="st20" d="M1065.8,522.9c-1.6,0-3,0.5-4,1.4c-1.1,0.9-1.6,2.1-1.7,3.6h3.6c0-0.5,0.2-0.9,0.6-1.2
			c0.4-0.3,0.9-0.5,1.5-0.5c0.6,0,1.2,0.1,1.5,0.5c0.3,0.4,0.5,0.8,0.5,1.5v0.5l-3.7,0.7c-0.7,0.1-1.3,0.2-1.8,0.4
			c-0.5,0.2-1,0.5-1.4,0.8c-0.5,0.3-0.8,0.7-1,1.2s-0.3,1-0.3,1.7c0,1.3,0.5,2.4,1.2,3c0.9,0.8,1.9,1.2,3.2,1.2
			c1.8,0,3.2-0.7,4.1-2.2v0.4c0.1,0.9,0.9,1.6,1.8,1.6h1.5v-9.3c0-1.7-0.5-3-1.5-3.9C1068.8,523.3,1067.5,522.9,1065.8,522.9z
			 M1067.7,531.6c0,0.6-0.2,1.2-0.5,1.7c-0.3,0.4-0.6,0.7-1,0.9c-0.4,0.2-0.8,0.3-1.3,0.3c-0.5,0-0.9-0.1-1.2-0.3
			c-0.3-0.2-0.4-0.5-0.4-0.9c0-0.5,0.1-0.8,0.3-1c0.3-0.2,0.7-0.4,1.2-0.5l2.9-0.6V531.6z"/>
		<path class="st20" d="M1076.8,517c-0.6,0-1.1,0.2-1.5,0.6c-0.5,0.4-0.7,1-0.7,1.6c0,0.6,0.1,1.1,0.6,1.5c0.5,0.4,1,0.6,1.6,0.6
			c0.6,0,1.2-0.2,1.6-0.6c0.5-0.4,0.7-0.9,0.7-1.5c0-0.6-0.2-1.2-0.7-1.6C1078,517.2,1077.4,517,1076.8,517z"/>
		<path class="st20" d="M1075,537.4h1.9c1,0,1.8-0.8,1.8-1.8v-12.4h-3.7V537.4z"/>
		<path class="st20" d="M1085.8,525.4l-0.4-2.2h-3.2v14.2h2c1,0,1.8-0.8,1.8-1.8v-5.5c0-1.3,0.4-2.1,1.1-2.7
			c0.7-0.6,1.7-0.9,2.8-0.9V523c-1.1,0-2,0.2-2.7,0.7C1086.6,524.1,1086.1,524.7,1085.8,525.4z"/>
		<path class="st20" d="M1107.1,531.9l-0.3,1.5l-0.3-1.5l-2.4-8.5h-3.3l-2.4,8.5l-0.3,1.5l-0.3-1.5l-2.2-8.5h-3.9l4.3,14.1h2.3
			c0.8,0,1.5-0.5,1.8-1.3l2.3-7l2.6,8.3h2.5c0.8,0,1.6-0.5,1.8-1.3l3.9-12.8h-3.9L1107.1,531.9z"/>
		<path class="st20" d="M1117.2,517c-0.6,0-1.2,0.2-1.6,0.6c-0.5,0.4-0.7,0.9-0.7,1.5c0,0.7,0.2,1.2,0.7,1.5c0.5,0.4,1,0.6,1.6,0.6
			c0.6,0,1.1-0.2,1.6-0.6c0.5-0.4,0.7-0.9,0.7-1.5c0-0.6-0.3-1.1-0.7-1.5C1118.3,517.2,1117.8,517,1117.2,517z"/>
		<path class="st20" d="M1115.3,537.4h1.9c1,0,1.8-0.8,1.8-1.8v-12.4h-3.7V537.4z"/>
		<path class="st20" d="M1130.1,522.9c-1,0-1.7,0.2-2.4,0.6c-0.6,0.4-1.1,0.9-1.5,1.6l-0.3-1.9h-3.2v14.2h1.9c1,0,1.9-0.8,1.9-1.9
			V530c0-1.2,0.2-2,0.7-2.6s1-0.9,1.8-0.9c0.6,0,1.2,0.3,1.5,0.7c0.3,0.4,0.5,1.1,0.5,1.9v8.3h1.8c1,0,1.9-0.8,1.9-1.9v-7.3
			c0-1.7-0.4-2.9-1.2-3.9C1132.7,523.4,1131.6,522.9,1130.1,522.9z"/>
		<path class="st20" d="M1148.1,524.8c-0.4-0.5-0.9-0.9-1.7-1.3c-0.8-0.3-1.6-0.5-2.6-0.5c-1.9,0-3.5,0.7-4.8,2.1
			c-1.3,1.4-1.9,3.2-1.9,5.3c0,1.4,0.3,2.6,0.8,3.8c0.6,1.2,1.4,2,2.4,2.7c1,0.7,2.2,1,3.4,1c2.1,0,3.6-0.7,4.6-2.2l0.1,0.4
			c0.2,0.8,0.9,1.5,1.8,1.5h1.6v-20.4h-3.7V524.8z M1148,530.4c0,1.2-0.4,2.2-1.1,2.9c-0.7,0.7-1.5,1.1-2.5,1.1
			c-1.1,0-1.9-0.3-2.6-1.1c-0.7-0.7-1-1.7-1-2.9s0.3-2.2,1-2.9s1.6-1.1,2.6-1.1c0.6,0,1.2,0.1,1.7,0.4c0.5,0.2,0.9,0.7,1.3,1.3
			c0.4,0.6,0.6,1.3,0.6,2.1V530.4z"/>
		<path class="st20" d="M1164.8,530.4c-0.7-0.7-1.9-1.2-3.6-1.5c-1-0.2-1.6-0.4-2-0.6c-0.3-0.2-0.5-0.5-0.5-1c0-0.4,0.1-0.7,0.4-1
			c0.2-0.3,0.6-0.4,1.1-0.4c1,0,1.6,0.5,1.6,1.6h3.6c0-1.4-0.5-2.5-1.5-3.3c-0.9-0.8-2.2-1.2-3.7-1.2c-1.7,0-3,0.4-3.9,1.3
			c-0.9,0.9-1.4,2-1.4,3.3c0,1.2,0.3,2.1,1.1,2.8c0.7,0.6,1.8,1.1,3.4,1.4c0.9,0.2,1.6,0.4,2,0.7c0.3,0.3,0.5,0.6,0.5,1.1
			c0,0.4-0.2,0.8-0.5,1c-0.3,0.3-0.7,0.4-1.3,0.4c-0.6,0-1.1-0.2-1.5-0.5c-0.1-0.1-0.2-0.2-0.3-0.3c-0.4-0.6-0.9-1-1.6-1h-2.3
			c0.1,1.4,0.6,2.6,2.1,3.5c0.9,0.8,2.3,1.2,4,1.2c0.8,0,1.4-0.1,2.1-0.3c0.6-0.1,1.2-0.4,1.7-0.8c0.5-0.3,0.9-0.8,1.2-1.4
			s0.4-1.3,0.4-2.1C1165.9,532,1165.5,531.1,1164.8,530.4z"/>
	</g>
</g>
<radialGradient id="SVGID_1_" cx="1402.3696" cy="470.6803" r="16.1424" fx="1402.6445" fy="471.3849" gradientUnits="userSpaceOnUse">
	<stop  offset="0" style="stop-color:#FFF7F2"/>
	<stop  offset="1" style="stop-color:#6D6D6D"/>
</radialGradient>
<circle class="st27" cx="1402.4" cy="470.7" r="16.1"/>
<path class="st1" d="M1402.4,442.2c17.3,0,29.6,12.1,29.6,28.4c0,16.3-12.3,28.5-29.6,28.5s-29.6-12.1-29.6-28.5
	S1385.1,442.2,1402.4,442.2z M1422,470.4c0-10.9-8.8-19.7-19.7-19.7c-10.9,0-19.7,8.8-19.7,19.7c0,10.9,8.8,19.7,19.7,19.7
	c0,0,0,0,0,0C1413.2,490,1422,481.2,1422,470.4L1422,470.4z"/>
<radialGradient id="SVGID_2_" cx="1402.3696" cy="470.6803" r="21.6422" fx="1402.7382" fy="471.625" gradientUnits="userSpaceOnUse">
	<stop  offset="0" style="stop-color:#FFF7F2"/>
	<stop  offset="1" style="stop-color:#6D6D6D"/>
</radialGradient>
<polygon class="st28" points="1406.9,470.7 1406.9,470.6 1406.9,470.7 1425.5,450.6 1402.4,466.2 1402.4,466.2 1379.2,450.6 
	1397.8,470.7 1379.2,490.7 1402.4,475.2 1402.3,475.1 1402.4,475.1 1402.4,475.2 1425.5,490.7 1406.9,470.7 "/>
</svg>
