<svg width="576" height="185" viewBox="0 0 576 185" fill="none" xmlns="http://www.w3.org/2000/svg">
<path d="M0.400391 184.199V50.5994H18.5004V65.4994C23.7004 55.9994 35.0004 48.3994 50.6004 48.3994C79.3004 48.3994 94.6004 70.4994 94.6004 98.3994C94.6004 126.899 78.0004 148.999 50.0004 148.999C35.3004 148.999 24.1004 141.999 18.9004 133.499V184.299H0.400391V184.199ZM47.2004 64.9994C30.1004 64.9994 18.7004 79.2994 18.7004 98.4994C18.7004 118.199 30.0004 132.299 47.2004 132.299C64.5004 132.299 75.5004 118.199 75.5004 98.4994C75.5004 79.2994 64.7004 64.9994 47.2004 64.9994Z" fill="#23183A"/>
<path d="M208.5 98.3996C208.5 127.7 188.2 149.4 159.5 149.4C130.8 149.4 110.5 127.7 110.5 98.3996C110.5 69.2996 130.8 47.5996 159.5 47.5996C188.2 47.5996 208.5 69.2996 208.5 98.3996ZM189.4 98.3996C189.4 76.2996 175.5 64.3996 159.5 64.3996C143.6 64.3996 129.6 76.2996 129.6 98.3996C129.6 120.7 143.5 132.6 159.5 132.6C175.4 132.7 189.4 120.7 189.4 98.3996Z" fill="#23183A"/>
<path d="M232.4 146.4V2.2002H251.1V146.4H232.4V146.4Z" fill="#23183A"/>
<path d="M306 91.5996L331.9 87.7996C337.7 86.9996 339.3 83.9996 339.3 80.5996C339.3 71.1996 333.1 63.4996 318.6 63.4996C305.5 63.4996 298.1 71.6996 296.9 82.7996L279 78.6996C281 60.3996 297.5 47.5996 318.2 47.5996C346.9 47.5996 358 63.8996 358 82.5996V130.6C358 139 358.8 143.9 359.2 146.3H340.9C340.5 143.9 339.9 140.3 339.9 133.4C335.7 140.2 326.2 149.3 309 149.3C289.5 149.3 276.9 135.8 276.9 120.6C277 103.6 289.5 93.9996 306 91.5996ZM339.3 105.4V101L310 105.4C302 106.6 296.1 111.2 296.1 119.7C296.1 126.9 302.1 133.6 311.6 133.6C326.9 133.7 339.3 126.3 339.3 105.4Z" fill="#23183A"/>
<path d="M440.2 69.5C437.4 69.1 434.6 68.9 432 68.9C416.3 68.9 405.7 77.3 405.7 98.4V146.4H387V50.6H405.3V67.3C412.3 52.6 424.2 49 434 49C436.6 49 439.2 49.4 440.2 49.6V69.5Z" fill="#23183A"/>
<path d="M469.3 0.799805C476.9 0.799805 482.8 6.7998 482.8 14.2998C482.8 21.6998 476.8 27.5998 469.3 27.5998C461.9 27.5998 456 21.5998 456 14.2998C456 6.7998 461.9 0.799805 469.3 0.799805ZM460.1 146.4V50.5998H478.6V146.4H460.1Z" fill="#23183A"/>
<path d="M518.5 115.5C519.7 125.5 527.3 133.4 540.8 133.4C551.4 133.4 557.1 127.4 557.1 120.7C557.1 114.7 552.7 110.1 544.8 108.4L528.5 104.8C513.6 101.6 504.6 91.4996 504.6 77.8996C504.6 61.5996 519.9 47.5996 538.6 47.5996C564.9 47.5996 573 64.6996 575 73.2996L558.5 79.4996C557.7 74.4996 553.7 63.5996 538.6 63.5996C529 63.5996 522.7 69.7996 522.7 76.2996C522.7 82.0996 526.3 86.2996 533.7 87.7996L549.2 91.1996C566.5 94.9996 575.7 105.5 575.7 119.7C575.7 133.2 564.4 149.4 540.7 149.4C514.4 149.4 503.3 132.5 501.7 121.5L518.5 115.5Z" fill="#23183A"/>
</svg>
