<svg width="23" height="19" viewBox="0 0 23 19" fill="none" xmlns="http://www.w3.org/2000/svg">
<path fill-rule="evenodd" clip-rule="evenodd" d="M22.1493 2.13946C21.3198 2.50717 20.4398 2.74851 19.5387 2.85546C20.4878 2.28792 21.1981 1.39465 21.5373 0.342131C20.6454 0.871424 19.6696 1.24435 18.652 1.4448C17.9684 0.711839 17.0617 0.225445 16.073 0.061335C15.0842 -0.102775 14.069 0.0646067 13.1853 0.537424C12.3016 1.01024 11.599 1.76196 11.1868 2.67557C10.7747 3.58917 10.6762 4.6134 10.9067 5.5888C9.10009 5.49835 7.33273 5.02902 5.71929 4.21128C4.10585 3.39353 2.6824 2.24565 1.54133 0.842131C0.95885 1.84225 0.780069 3.02698 1.04149 4.15444C1.30291 5.28191 1.98483 6.26707 2.948 6.9088C2.22618 6.88601 1.5203 6.69079 0.889333 6.33946V6.3968C0.88974 7.44588 1.25292 8.46255 1.91731 9.27444C2.58169 10.0863 3.5064 10.6435 4.53467 10.8515C3.86549 11.0332 3.16363 11.0597 2.48267 10.9288C2.77282 11.8319 3.33806 12.6216 4.09929 13.1875C4.86052 13.7534 5.77963 14.0671 6.728 14.0848C5.7854 14.8255 4.70596 15.3731 3.55149 15.6961C2.39701 16.0192 1.19015 16.1114 0 15.9675C2.07767 17.3025 4.49573 18.0111 6.96533 18.0088C15.324 18.0088 19.8947 11.0848 19.8947 5.0808C19.8947 4.88346 19.8907 4.68747 19.8813 4.4928C20.7707 3.8493 21.5383 3.05238 22.148 2.13946" fill="#200C36"/>
</svg>
