<svg width="21" height="15" viewBox="0 0 21 15" fill="none" xmlns="http://www.w3.org/2000/svg">
<path d="M0.179933 0.618164C0.141568 0.674883 0.108705 0.735134 0.0817876 0.798097C0.0804492 0.812241 0.0804492 0.826481 0.0817876 0.840626C0.0577521 0.899071 0.0380694 0.959212 0.0229004 1.02056C0.0229004 1.04346 0.0229004 1.06309 0.0229004 1.08599C0.00864543 1.16262 0.000983986 1.24033 0 1.31827V13.6911C0.00326448 13.9223 0.0688148 14.1483 0.189747 14.3454L6.46122 6.35965L0.179933 0.618164Z" fill="#200C36"/>
<path d="M10.9948 8.01518L19.5629 0.163575C19.3735 0.0587468 19.1611 0.00254309 18.9446 0H1.27847C1.06239 0.0023425 0.850153 0.0573681 0.660156 0.160304L9.2315 8.01191C9.47213 8.23213 9.78634 8.35454 10.1125 8.35515C10.4387 8.35575 10.7534 8.23451 10.9948 8.01518Z" fill="#200C36"/>
<path d="M20.2314 1.08599C20.2314 1.06309 20.2314 1.04346 20.2314 1.02383C20.2168 0.961278 20.1971 0.90001 20.1725 0.840626C20.1739 0.826481 20.1739 0.812241 20.1725 0.798097C20.1456 0.735134 20.1128 0.674883 20.0744 0.618164L13.7637 6.35965L20.0646 14.3552C20.1855 14.1581 20.2511 13.9321 20.2543 13.7009V1.31827C20.2534 1.24033 20.2457 1.16262 20.2314 1.08599Z" fill="#200C36"/>
<path d="M11.4412 8.49635C11.0792 8.82832 10.6058 9.01248 10.1146 9.01248C9.62343 9.01248 9.15008 8.82832 8.78804 8.49635L6.94618 6.81152L0.628906 14.8169C0.82624 14.9364 1.05249 14.9998 1.28321 15.0001H18.9493C19.18 14.9998 19.4063 14.9364 19.6036 14.8169L13.2798 6.81152L11.4412 8.49635Z" fill="#200C36"/>
</svg>
