<svg width="21" height="21" viewBox="0 0 21 21" fill="none" xmlns="http://www.w3.org/2000/svg">
<path fill-rule="evenodd" clip-rule="evenodd" d="M10.2654 5.30175e-06C7.82844 -0.00247156 5.47025 0.862978 3.61342 2.44126C1.7566 4.01954 0.52251 6.20749 0.132324 8.61302C-0.257863 11.0185 0.221352 13.4844 1.48409 15.5687C2.74683 17.653 4.71056 19.2195 7.02335 19.9874C7.53956 20.0818 7.72212 19.7608 7.72212 19.4901C7.72212 19.2194 7.72212 18.6025 7.72212 17.7463C4.85779 18.3695 4.25344 16.3676 4.25344 16.3676C4.06342 15.7472 3.65972 15.2141 3.114 14.8631C2.1886 14.2336 3.18955 14.2336 3.18955 14.2336C3.51394 14.2794 3.82365 14.3984 4.09523 14.5816C4.36681 14.7649 4.59313 15.0075 4.75706 15.2912C4.89635 15.5437 5.08414 15.7663 5.30966 15.9461C5.53518 16.1259 5.79398 16.2594 6.07122 16.339C6.34846 16.4185 6.63868 16.4425 6.92523 16.4096C7.21177 16.3768 7.489 16.2876 7.74101 16.1473C7.78052 15.6294 8.00378 15.1427 8.37053 14.775C6.09165 14.5168 3.69946 13.6355 3.69946 9.73875C3.68381 8.7208 4.06023 7.73581 4.75077 6.98773C4.44321 6.10264 4.47916 5.13433 4.85149 4.27448C4.85149 4.27448 5.71394 3.99749 7.67176 5.32579C9.35296 4.86419 11.1275 4.86419 12.8087 5.32579C14.7665 3.99749 15.6227 4.27448 15.6227 4.27448C16.0002 5.12523 16.0451 6.08659 15.7486 6.96884C16.4391 7.71693 16.8155 8.70191 16.7999 9.71987C16.7999 13.6607 14.4014 14.5231 12.1162 14.7561C12.3612 15.0024 12.5504 15.2985 12.671 15.6243C12.7916 15.9502 12.8407 16.2982 12.815 16.6446C12.815 18.017 12.815 19.125 12.815 19.4586C12.815 19.7923 12.9975 20.0504 13.52 19.9496C15.8065 19.1614 17.7408 17.5905 18.9813 15.5143C20.2217 13.4381 20.6884 10.9903 20.299 8.6034C19.9096 6.21644 18.6891 4.04393 16.8531 2.46965C15.0171 0.895371 12.6838 0.0206469 10.2654 5.30175e-06Z" fill="#200C36"/>
</svg>
