<svg width="20" height="20" viewBox="0 0 20 20" fill="none" xmlns="http://www.w3.org/2000/svg">
<path d="M4.20195 12.6381C4.20195 13.7944 3.25733 14.7391 2.10098 14.7391C0.944626 14.7391 0 13.7944 0 12.6381C0 11.4817 0.944626 10.5371 2.10098 10.5371H4.20195V12.6381Z" fill="#200C36"/>
<path d="M5.25977 12.6381C5.25977 11.4817 6.20439 10.5371 7.36074 10.5371C8.5171 10.5371 9.46172 11.4817 9.46172 12.6381V17.8987C9.46172 19.055 8.5171 19.9996 7.36074 19.9996C6.20439 19.9996 5.25977 19.055 5.25977 17.8987V12.6381Z" fill="#200C36"/>
<path d="M7.36074 4.20195C6.20439 4.20195 5.25977 3.25733 5.25977 2.10098C5.25977 0.944626 6.20439 0 7.36074 0C8.5171 0 9.46172 0.944626 9.46172 2.10098V4.20195H7.36074Z" fill="#200C36"/>
<path d="M7.36156 5.26074C8.51792 5.26074 9.46254 6.20537 9.46254 7.36172C9.46254 8.51807 8.51792 9.4627 7.36156 9.4627H2.10098C0.944626 9.4627 0 8.51807 0 7.36172C0 6.20537 0.944626 5.26074 2.10098 5.26074H7.36156Z" fill="#200C36"/>
<path d="M15.7988 7.36172C15.7988 6.20537 16.7435 5.26074 17.8998 5.26074C19.0562 5.26074 20.0008 6.20537 20.0008 7.36172C20.0008 8.51807 19.0562 9.4627 17.8998 9.4627H15.7988V7.36172Z" fill="#200C36"/>
<path d="M14.7391 7.36156C14.7391 8.51792 13.7944 9.46254 12.6381 9.46254C11.4817 9.46254 10.5371 8.51792 10.5371 7.36156V2.10098C10.5371 0.944626 11.4817 0 12.6381 0C13.7944 0 14.7391 0.944626 14.7391 2.10098V7.36156Z" fill="#200C36"/>
<path d="M12.6381 15.7979C13.7944 15.7979 14.7391 16.7425 14.7391 17.8988C14.7391 19.0552 13.7944 19.9998 12.6381 19.9998C11.4817 19.9998 10.5371 19.0552 10.5371 17.8988V15.7979H12.6381Z" fill="#200C36"/>
<path d="M12.6381 14.7391C11.4817 14.7391 10.5371 13.7944 10.5371 12.6381C10.5371 11.4817 11.4817 10.5371 12.6381 10.5371H17.8987C19.055 10.5371 19.9996 11.4817 19.9996 12.6381C19.9996 13.7944 19.055 14.7391 17.8987 14.7391H12.6381Z" fill="#200C36"/>
</svg>
