<svg width="158" height="36" viewBox="0 0 158 36" fill="none" xmlns="http://www.w3.org/2000/svg">
<path d="M29.5635 9.1911H0V0H32.3048V6.43444C32.3048 7.95543 31.077 9.1911 29.5635 9.1911Z" fill="#200C36"/>
<path d="M17.8144 22.168H0V12.9746H20.558V19.4068C20.558 20.9323 19.3302 22.168 17.8144 22.168Z" fill="#200C36"/>
<path d="M6.39578 35.1445H0V25.9512H9.13715V32.3834C9.13715 33.9089 7.90934 35.1445 6.39578 35.1445Z" fill="#200C36"/>
<path d="M41.168 27.1948V7.90137H52.9468V9.26504C52.9468 10.4653 51.9785 11.4398 50.7858 11.4398H44.926V15.7714H50.2249V16.9123C50.2249 18.2373 49.1563 19.3128 47.8397 19.3128H44.926V25.433C44.926 26.4075 44.1407 27.1978 43.1724 27.1978H41.168V27.1948Z" fill="#200C36"/>
<path d="M53.7559 23.2579C53.7559 22.628 53.8592 22.0784 54.0688 21.606C54.2784 21.1337 54.5824 20.7445 54.9839 20.4384C55.3854 20.1324 55.8341 19.8888 56.3271 19.7046C56.8231 19.5204 57.3958 19.3808 58.0452 19.2768L61.6438 18.6202V18.133C61.6438 17.5002 61.4755 17.0129 61.1449 16.6713C60.8113 16.3296 60.3301 16.1603 59.6984 16.1603C59.1021 16.1603 58.6091 16.3148 58.2194 16.6208C57.8268 16.9268 57.6319 17.3308 57.6319 17.8299H54.1721C54.2518 16.3771 54.7891 15.1947 55.7839 14.2856C56.7788 13.3765 58.0836 12.9189 59.6984 12.9189C61.3958 12.9189 62.739 13.3527 63.728 14.2173C64.7199 15.0818 65.2129 16.3504 65.2129 18.0171V27.1944H63.7191C62.8335 27.1944 62.0837 26.5289 61.9774 25.6406L61.9361 25.3019C61.0652 26.7696 59.7456 27.5034 57.9744 27.5034C56.7227 27.5034 55.7072 27.1201 54.9249 26.3536C54.1455 25.5871 53.7559 24.5532 53.7559 23.2579ZM57.3249 23.0202C57.3249 23.4035 57.4666 23.7035 57.75 23.9293C58.0334 24.1521 58.429 24.265 58.9368 24.265C59.3825 24.265 59.8017 24.164 60.1973 23.962C60.5929 23.76 60.9117 23.4718 61.1508 23.1004C61.4785 22.637 61.6438 22.0725 61.6438 21.404V21.0208L58.8748 21.6001C58.37 21.707 57.9862 21.8675 57.7205 22.0873C57.4578 22.3012 57.3249 22.6132 57.3249 23.0202Z" fill="#200C36"/>
<path d="M68.3969 9.1814C68.3851 8.60206 68.6124 8.0257 69.0257 7.61868C69.4302 7.22057 69.9172 7.01557 70.487 7.00072C71.0597 6.98586 71.6324 7.20274 72.0516 7.59788C72.4944 8.01381 72.7158 8.52482 72.7158 9.12792C72.7158 9.72806 72.5033 10.2302 72.0811 10.6342C71.659 11.0383 71.1483 11.2403 70.549 11.2403C69.9438 11.2403 69.4331 11.0383 69.0169 10.6342C68.6183 10.2391 68.4087 9.75777 68.3969 9.1814ZM68.7718 27.1943V13.2278H72.3439V25.4296C72.3439 26.4041 71.5586 27.1943 70.5903 27.1943H68.7718Z" fill="#200C36"/>
<path d="M75.8574 27.1932V13.2267H78.9069L79.2464 15.4252C79.5062 14.7448 79.9726 14.1833 80.6457 13.7406C81.3217 13.298 82.2073 13.0781 83.3055 13.0781V16.6165C82.1719 16.6165 81.2538 16.8899 80.5512 17.4425C79.8545 18.001 79.4826 18.8715 79.4265 20.051V25.4284C79.4265 26.4029 78.6412 27.1932 77.673 27.1932H75.8574Z" fill="#200C36"/>
<path d="M85.166 13.2275H88.9771L91.0908 21.6235L91.3329 23.1179L91.6399 21.6235L93.9957 13.2275H97.1544L99.5102 21.6235L99.8054 23.1179L100.059 21.6235L102.188 13.2275H105.999L102.205 25.8868C101.972 26.6622 101.264 27.194 100.458 27.194H98.0784L95.5603 18.9853L93.2842 25.9314C93.0363 26.683 92.3396 27.1911 91.5514 27.1911H89.3373L85.166 13.2275Z" fill="#200C36"/>
<path d="M107.82 9.12424C107.82 8.53302 108.03 8.03092 108.449 7.61796C108.868 7.205 109.376 7 109.972 7C110.56 7 111.068 7.205 111.496 7.61796C111.924 8.03092 112.136 8.53302 112.136 9.12424C112.136 9.72437 111.924 10.2265 111.502 10.6305C111.079 11.0346 110.569 11.2366 109.969 11.2366C109.364 11.2366 108.854 11.0346 108.437 10.6305C108.027 10.2265 107.82 9.72437 107.82 9.12424ZM108.195 27.1936V13.2271H111.767V25.4289C111.767 26.4033 110.982 27.1936 110.014 27.1936H108.195Z" fill="#200C36"/>
<path d="M115.549 27.1945V13.228H118.598L118.879 15.0818C119.218 14.4342 119.708 13.9113 120.349 13.5132C120.992 13.1151 121.754 12.916 122.637 12.916C124.08 12.916 125.184 13.3795 125.952 14.3094C126.717 15.2363 127.1 16.5079 127.1 18.1241V25.3554C127.1 26.3685 126.283 27.1915 125.276 27.1915H123.531V18.959C123.531 18.1479 123.363 17.5299 123.032 17.0991C122.699 16.6713 122.212 16.4574 121.571 16.4574C120.851 16.4574 120.263 16.7456 119.806 17.3279C119.348 17.9072 119.118 18.751 119.118 19.8562V25.3614C119.118 26.3745 118.3 27.1974 117.294 27.1974H115.549V27.1945Z" fill="#200C36"/>
<path d="M129.686 20.1969C129.686 18.1351 130.297 16.406 131.519 15.0096C132.741 13.6133 134.282 12.9181 136.145 12.9181C137.08 12.9181 137.91 13.0874 138.633 13.4291C139.354 13.7707 139.912 14.2045 140.304 14.7333V7.07715H143.876V27.1935H142.335C141.467 27.1935 140.732 26.5577 140.602 25.6932L140.546 25.3218C139.563 26.7746 138.087 27.5025 136.121 27.5025C134.899 27.5025 133.795 27.1787 132.812 26.534C131.829 25.8893 131.061 25.0099 130.512 23.8958C129.96 22.7846 129.686 21.5517 129.686 20.1969ZM133.349 20.1969C133.349 21.3734 133.683 22.3241 134.353 23.049C135.02 23.7769 135.855 24.1394 136.853 24.1394C137.789 24.1394 138.607 23.7918 139.306 23.0966C140.006 22.4014 140.357 21.4625 140.357 20.2771V20.1167C140.348 19.3264 140.171 18.6342 139.823 18.037C139.475 17.4399 139.041 17.0002 138.518 16.712C137.996 16.4238 137.441 16.2812 136.853 16.2812C135.864 16.2812 135.032 16.6436 134.359 17.3715C133.686 18.0994 133.349 19.0412 133.349 20.1969Z" fill="#200C36"/>
<path d="M146.639 22.9548H148.853C149.499 22.9548 150.045 23.341 150.388 23.8907C150.468 24.0184 150.565 24.1283 150.683 24.2264C151.034 24.5175 151.516 24.6631 152.13 24.6631C152.67 24.6631 153.092 24.5443 153.396 24.3066C153.697 24.0689 153.848 23.7451 153.848 23.3321C153.848 22.8835 153.676 22.53 153.334 22.2685C152.992 22.0071 152.327 21.7843 151.344 21.5971C149.827 21.3356 148.705 20.8692 147.982 20.1978C147.259 19.5263 146.896 18.6142 146.896 17.4674C146.896 16.1751 147.341 15.0936 148.236 14.2261C149.127 13.3556 150.391 12.9219 152.026 12.9219C153.499 12.9219 154.704 13.3289 155.64 14.14C156.575 14.951 157.071 16.0176 157.124 17.3367H153.582C153.555 16.2701 153.027 15.7354 151.997 15.7354C151.507 15.7354 151.132 15.8602 150.863 16.1127C150.597 16.3622 150.465 16.695 150.465 17.108C150.465 17.5477 150.636 17.8834 150.978 18.1181C151.321 18.3528 151.961 18.5489 152.903 18.7093C154.535 18.9886 155.696 19.4699 156.386 20.1562C157.074 20.8425 157.42 21.7783 157.42 22.9608C157.42 23.7332 157.278 24.4136 156.992 25.0048C156.705 25.596 156.313 26.0714 155.814 26.4308C155.315 26.7903 154.748 27.0577 154.113 27.2389C153.479 27.4172 152.794 27.5093 152.053 27.5093C150.37 27.5093 149.059 27.1023 148.121 26.2853C147.182 25.4682 146.683 24.3541 146.639 22.9548Z" fill="#200C36"/>
</svg>
