<svg width="155" height="36" viewBox="0 0 155 36" fill="none" xmlns="http://www.w3.org/2000/svg">
<path d="M29.5635 9.1911H0V0H32.3048V6.43444C32.3048 7.95543 31.077 9.1911 29.5635 9.1911Z" fill="white"/>
<path d="M17.8144 22.168H0V12.9746H20.558V19.4068C20.558 20.9323 19.3302 22.168 17.8144 22.168Z" fill="white"/>
<path d="M6.39578 35.1445H0V25.9512H9.13715V32.3834C9.13715 33.9089 7.90934 35.1445 6.39578 35.1445Z" fill="white"/>
<path d="M41.167 27.6933V8.87891H52.6533V10.2087C52.6533 11.3792 51.7091 12.3295 50.546 12.3295H44.8317V16.5536H49.9991V17.6661C49.9991 18.9582 48.957 20.007 47.673 20.007H44.8317V25.9752C44.8317 26.9255 44.0659 27.6961 43.1217 27.6961H41.167V27.6933Z" fill="white"/>
<path d="M53.4414 23.8537C53.4414 23.2395 53.5422 22.7035 53.7466 22.2429C53.9509 21.7822 54.2475 21.4027 54.639 21.1043C55.0305 20.8059 55.4681 20.5683 55.9488 20.3887C56.4325 20.209 56.9909 20.0729 57.6243 19.9715L61.1335 19.3312V18.8561C61.1335 18.2389 60.9694 17.7638 60.647 17.4306C60.3217 17.0975 59.8524 16.9323 59.2364 16.9323C58.6549 16.9323 58.1741 17.083 57.7941 17.3814C57.4112 17.6798 57.2212 18.0738 57.2212 18.5605H53.8473C53.925 17.1438 54.449 15.9907 55.4191 15.1042C56.3893 14.2177 57.6617 13.7715 59.2364 13.7715C60.8917 13.7715 62.2015 14.1945 63.1659 15.0376C64.1332 15.8806 64.6139 17.1177 64.6139 18.7431V27.6925H63.1573C62.2936 27.6925 61.5624 27.0435 61.4588 26.1772L61.4185 25.847C60.5693 27.2782 59.2824 27.9938 57.5552 27.9938C56.3346 27.9938 55.3443 27.62 54.5814 26.8726C53.8214 26.1251 53.4414 25.1169 53.4414 23.8537ZM56.9218 23.6219C56.9218 23.9957 57.06 24.2883 57.3364 24.5085C57.6128 24.7258 57.9985 24.8358 58.4937 24.8358C58.9284 24.8358 59.3371 24.7373 59.7229 24.5403C60.1087 24.3433 60.4196 24.0623 60.6527 23.7002C60.9723 23.2482 61.1335 22.6977 61.1335 22.0459V21.6721L58.4332 22.2371C57.9409 22.3414 57.5667 22.4978 57.3076 22.7122C57.0514 22.9208 56.9218 23.225 56.9218 23.6219Z" fill="white"/>
<path d="M67.7182 10.1272C67.7067 9.56228 67.9284 9.00023 68.3314 8.60331C68.7258 8.21509 69.2008 8.01518 69.7564 8.0007C70.3149 7.98621 70.8733 8.19771 71.2821 8.58303C71.7139 8.98864 71.9298 9.48696 71.9298 10.0751C71.9298 10.6603 71.7226 11.1499 71.3109 11.544C70.8992 11.938 70.4012 12.135 69.8168 12.135C69.2267 12.135 68.7287 11.938 68.3227 11.544C67.9341 11.1586 67.7297 10.6893 67.7182 10.1272ZM68.0838 27.6929V14.0732H71.5671V25.972C71.5671 26.9222 70.8014 27.6929 69.8571 27.6929H68.0838Z" fill="white"/>
<path d="M74.9951 27.6923V14.0726H77.9689L78.3 16.2165C78.5533 15.5531 79.0081 15.0055 79.6645 14.5738C80.3237 14.1421 81.1874 13.9277 82.2583 13.9277V17.3783C81.1528 17.3783 80.2575 17.6448 79.5724 18.1837C78.893 18.7284 78.5303 19.5773 78.4756 20.7274V25.9714C78.4756 26.9216 77.7098 27.6923 76.7656 27.6923H74.9951Z" fill="white"/>
<path d="M84.0732 14.0723H87.7897L89.8509 22.2597L90.087 23.717L90.3864 22.2597L92.6837 14.0723H95.7639L98.0612 22.2597L98.3491 23.717L98.5967 22.2597L100.672 14.0723H104.389L100.69 26.4172C100.462 27.1734 99.7712 27.692 98.9853 27.692H96.665L94.2094 19.687L91.9899 26.4606C91.7481 27.1936 91.0687 27.6891 90.3 27.6891H88.1409L84.0732 14.0723Z" fill="white"/>
<path d="M106.164 10.0715C106.164 9.49495 106.368 9.00532 106.777 8.60262C107.186 8.19991 107.681 8 108.263 8C108.836 8 109.331 8.19991 109.748 8.60262C110.166 9.00532 110.373 9.49495 110.373 10.0715C110.373 10.6567 110.166 11.1463 109.754 11.5404C109.342 11.9344 108.844 12.1314 108.26 12.1314C107.67 12.1314 107.172 11.9344 106.766 11.5404C106.366 11.1463 106.164 10.6567 106.164 10.0715ZM106.53 27.6922V14.0725H110.013V25.9713C110.013 26.9215 109.247 27.6922 108.303 27.6922H106.53Z" fill="white"/>
<path d="M113.701 27.6924V14.0728H116.675L116.948 15.8806C117.279 15.249 117.757 14.7391 118.382 14.3509C119.01 13.9627 119.752 13.7686 120.613 13.7686C122.021 13.7686 123.097 14.2205 123.846 15.1273C124.592 16.0313 124.966 17.2713 124.966 18.8473V25.8991C124.966 26.887 124.168 27.6895 123.187 27.6895H121.485V19.6614C121.485 18.8705 121.321 18.2679 120.999 17.8478C120.674 17.4306 120.199 17.222 119.574 17.222C118.871 17.222 118.299 17.503 117.852 18.0709C117.406 18.6358 117.182 19.4586 117.182 20.5364V25.9049C117.182 26.8928 116.384 27.6953 115.403 27.6953H113.701V27.6924Z" fill="white"/>
<path d="M127.488 20.8692C127.488 18.8585 128.084 17.1724 129.276 15.8107C130.468 14.449 131.971 13.7711 133.787 13.7711C134.7 13.7711 135.509 13.9362 136.214 14.2694C136.916 14.6026 137.46 15.0256 137.843 15.5413V8.0752H141.327V27.6921H139.824C138.977 27.6921 138.261 27.0721 138.134 26.229L138.079 25.8668C137.121 27.2836 135.681 27.9934 133.764 27.9934C132.572 27.9934 131.496 27.6776 130.537 27.0489C129.578 26.4202 128.83 25.5626 128.294 24.4762C127.756 23.3926 127.488 22.1903 127.488 20.8692ZM131.061 20.8692C131.061 22.0165 131.386 22.9436 132.04 23.6505C132.69 24.3603 133.505 24.7138 134.478 24.7138C135.391 24.7138 136.188 24.3748 136.87 23.6968C137.552 23.0189 137.895 22.1034 137.895 20.9474V20.791C137.886 20.0203 137.714 19.3453 137.374 18.7629C137.034 18.1806 136.611 17.7518 136.102 17.4708C135.592 17.1898 135.051 17.0507 134.478 17.0507C133.514 17.0507 132.702 17.4041 132.045 18.114C131.389 18.8238 131.061 19.7422 131.061 20.8692Z" fill="white"/>
<path d="M144.02 23.5592H146.179C146.809 23.5592 147.342 23.9358 147.676 24.4718C147.753 24.5964 147.848 24.7036 147.963 24.7992C148.306 25.0831 148.775 25.2251 149.374 25.2251C149.901 25.2251 150.313 25.1092 150.609 24.8774C150.903 24.6456 151.05 24.3299 151.05 23.9271C151.05 23.4897 150.883 23.1449 150.549 22.8899C150.215 22.635 149.567 22.4177 148.608 22.2352C147.129 21.9802 146.035 21.5254 145.329 20.8706C144.624 20.2158 144.27 19.3264 144.27 18.2081C144.27 16.9478 144.705 15.8932 145.577 15.0473C146.446 14.1984 147.678 13.7754 149.273 13.7754C150.71 13.7754 151.884 14.1723 152.797 14.9632C153.709 15.7542 154.193 16.7943 154.245 18.0806H150.79C150.765 17.0405 150.249 16.519 149.245 16.519C148.767 16.519 148.401 16.6407 148.139 16.887C147.88 17.1303 147.75 17.4548 147.75 17.8575C147.75 18.2863 147.917 18.6137 148.251 18.8426C148.585 19.0715 149.21 19.2627 150.128 19.4191C151.72 19.6915 152.852 20.1608 153.525 20.83C154.196 21.4993 154.533 22.4119 154.533 23.565C154.533 24.3183 154.395 24.9817 154.115 25.5583C153.836 26.1348 153.453 26.5984 152.967 26.9489C152.48 27.2995 151.928 27.5602 151.309 27.7369C150.69 27.9108 150.022 28.0006 149.299 28.0006C147.658 28.0006 146.38 27.6037 145.465 26.807C144.549 26.0102 144.063 24.9238 144.02 23.5592Z" fill="white"/>
</svg>
