<svg width="28" height="23" viewBox="0 0 28 23" fill="none" xmlns="http://www.w3.org/2000/svg">
<path fill-rule="evenodd" clip-rule="evenodd" d="M27.7003 2.67433C26.6634 3.13396 25.5634 3.43564 24.437 3.56933C25.6234 2.8599 26.5113 1.74331 26.9353 0.427664C25.8204 1.08928 24.6007 1.55544 23.3287 1.806C22.4742 0.889798 21.3408 0.281806 20.1049 0.0766687C18.869 -0.128469 17.5999 0.0807583 16.4953 0.67178C15.3906 1.2628 14.5124 2.20245 13.9972 3.34446C13.4821 4.48647 13.3589 5.76675 13.647 6.986C11.3888 6.87294 9.17958 6.28628 7.16278 5.2641C5.14598 4.24192 3.36667 2.80706 1.94034 1.05266C1.21223 2.30281 0.988758 3.78372 1.31554 5.19305C1.64232 6.60238 2.4947 7.83384 3.69867 8.636C2.7964 8.60751 1.91404 8.36349 1.12534 7.92433V7.996C1.12585 9.30735 1.57982 10.5782 2.41031 11.5931C3.24079 12.6079 4.39668 13.3044 5.68201 13.5643C4.84554 13.7916 3.9682 13.8246 3.11701 13.661C3.47969 14.7898 4.18625 15.777 5.13778 16.4844C6.08932 17.1918 7.23821 17.5839 8.42367 17.606C7.24542 18.5319 5.89612 19.2164 4.45303 19.6202C3.00993 20.024 1.50136 20.1392 0.0136719 19.9593C2.61076 21.6281 5.63334 22.5139 8.72034 22.511C19.1687 22.511 24.882 13.856 24.882 6.351C24.882 6.10433 24.877 5.85933 24.8653 5.616C25.9771 4.81162 26.9366 3.81548 27.6987 2.67433" fill="white"/>
</svg>
