<svg width="25" height="25" viewBox="0 0 25 25" fill="none" xmlns="http://www.w3.org/2000/svg">
<path d="M5.25244 15.7981C5.25244 17.2435 4.07166 18.4243 2.62622 18.4243C1.18078 18.4243 0 17.2435 0 15.7981C0 14.3527 1.18078 13.1719 2.62622 13.1719H5.25244V15.7981Z" fill="white"/>
<path d="M6.57617 15.7981C6.57617 14.3527 7.75695 13.1719 9.20239 13.1719C10.6478 13.1719 11.8286 14.3527 11.8286 15.7981V22.3738C11.8286 23.8193 10.6478 25 9.20239 25C7.75695 25 6.57617 23.8193 6.57617 22.3738V15.7981Z" fill="white"/>
<path d="M9.20239 5.25244C7.75695 5.25244 6.57617 4.07166 6.57617 2.62622C6.57617 1.18078 7.75695 0 9.20239 0C10.6478 0 11.8286 1.18078 11.8286 2.62622V5.25244H9.20239Z" fill="white"/>
<path d="M9.20196 6.57617C10.6474 6.57617 11.8282 7.75695 11.8282 9.20239C11.8282 10.6478 10.6474 11.8286 9.20196 11.8286H2.62622C1.18078 11.8286 0 10.6478 0 9.20239C0 7.75695 1.18078 6.57617 2.62622 6.57617H9.20196Z" fill="white"/>
<path d="M19.748 9.20239C19.748 7.75695 20.9288 6.57617 22.3743 6.57617C23.8197 6.57617 25.0005 7.75695 25.0005 9.20239C25.0005 10.6478 23.8197 11.8286 22.3743 11.8286H19.748V9.20239Z" fill="white"/>
<path d="M18.4243 9.20196C18.4243 10.6474 17.2435 11.8282 15.7981 11.8282C14.3527 11.8282 13.1719 10.6474 13.1719 9.20196V2.62622C13.1719 1.18078 14.3527 0 15.7981 0C17.2435 0 18.4243 1.18078 18.4243 2.62622V9.20196Z" fill="white"/>
<path d="M15.7981 19.7471C17.2435 19.7471 18.4243 20.9279 18.4243 22.3733C18.4243 23.8187 17.2435 24.9995 15.7981 24.9995C14.3527 24.9995 13.1719 23.8187 13.1719 22.3733V19.7471H15.7981Z" fill="white"/>
<path d="M15.7981 18.4243C14.3527 18.4243 13.1719 17.2435 13.1719 15.7981C13.1719 14.3527 14.3527 13.1719 15.7981 13.1719H22.3738C23.8193 13.1719 25 14.3527 25 15.7981C25 17.2435 23.8193 18.4243 22.3738 18.4243H15.7981Z" fill="white"/>
</svg>
