<svg width="28" height="20" viewBox="0 0 28 20" fill="none" xmlns="http://www.w3.org/2000/svg">
<path d="M0.253585 0.824219C0.202432 0.899845 0.158613 0.98018 0.122724 1.06413C0.120939 1.08299 0.120939 1.10198 0.122724 1.12084C0.0906758 1.19877 0.0644318 1.27896 0.0442062 1.36075C0.0442062 1.39129 0.0442062 1.41746 0.0442062 1.44799C0.0251993 1.55017 0.0149839 1.65378 0.0136719 1.7577V18.255C0.0180246 18.5633 0.105426 18.8647 0.266672 19.1275L8.62875 8.47965L0.253585 0.824219Z" fill="white"/>
<path d="M14.6743 10.6871L26.0986 0.218103C25.846 0.0783302 25.5627 0.00339083 25.2741 0H1.71896C1.43086 0.00312338 1.14786 0.0764918 0.894531 0.213741L12.3231 10.6827C12.644 10.9763 13.0629 11.1395 13.4979 11.1404C13.9328 11.1412 14.3524 10.9795 14.6743 10.6871Z" fill="white"/>
<path d="M26.989 1.44799C26.989 1.41746 26.989 1.39129 26.989 1.36511C26.9695 1.28171 26.9432 1.20002 26.9105 1.12084C26.9123 1.10198 26.9123 1.08299 26.9105 1.06413C26.8746 0.98018 26.8308 0.899845 26.7797 0.824219L18.3652 8.47965L26.7666 19.1405C26.9278 18.8778 27.0152 18.5764 27.0196 18.2681V1.7577C27.0183 1.65378 27.008 1.55017 26.989 1.44799Z" fill="white"/>
<path d="M15.2682 11.3285C14.7855 11.7711 14.1543 12.0167 13.4994 12.0167C12.8444 12.0167 12.2133 11.7711 11.7306 11.3285L9.27471 9.08203L0.851562 19.756C1.11468 19.9154 1.41635 19.9999 1.72398 20.0003H25.2791C25.5868 19.9999 25.8884 19.9154 26.1516 19.756L17.7197 9.08203L15.2682 11.3285Z" fill="white"/>
</svg>
