<svg width="26" height="26" viewBox="0 0 26 26" fill="none" xmlns="http://www.w3.org/2000/svg">
<path fill-rule="evenodd" clip-rule="evenodd" d="M12.8318 6.62719e-06C9.78555 -0.00308945 6.83781 1.07872 4.51678 3.05158C2.19574 5.02443 0.653138 7.75937 0.165404 10.7663C-0.322329 13.7732 0.27669 16.8555 1.85511 19.4609C3.43354 22.0662 5.88819 24.0243 8.77919 24.9843C9.42445 25.1023 9.65265 24.701 9.65265 24.3626C9.65265 24.0242 9.65265 23.2531 9.65265 22.1829C6.07223 22.9619 5.3168 20.4596 5.3168 20.4596C5.07927 19.684 4.57466 19.0177 3.8925 18.5789C2.73575 17.7919 3.98693 17.7919 3.98693 17.7919C4.39242 17.8492 4.77956 17.998 5.11904 18.2271C5.45851 18.4561 5.74142 18.7594 5.94633 19.114C6.12044 19.4297 6.35518 19.7079 6.63707 19.9326C6.91897 20.1574 7.24248 20.3243 7.58903 20.4237C7.93558 20.5231 8.29835 20.5532 8.65653 20.5121C9.01471 20.4709 9.36125 20.3595 9.67626 20.1841C9.72565 19.5368 10.0047 18.9284 10.4632 18.4687C7.61457 18.1461 4.62433 17.0444 4.62433 12.1734C4.60477 10.901 5.07528 9.66977 5.93846 8.73466C5.55402 7.6283 5.59895 6.41792 6.06436 5.3431C6.06436 5.3431 7.14242 4.99686 9.5897 6.65723C11.6912 6.08024 13.9094 6.08024 16.0109 6.65723C18.4581 4.99686 19.5283 5.3431 19.5283 5.3431C20.0002 6.40654 20.0564 7.60824 19.6857 8.71105C20.5489 9.64616 21.0194 10.8774 20.9998 12.1498C20.9998 17.0759 18.0017 18.1539 15.1453 18.4451C15.4515 18.753 15.6881 19.1231 15.8388 19.5304C15.9895 19.9377 16.0508 20.3727 16.0187 20.8058C16.0187 22.5213 16.0187 23.9062 16.0187 24.3233C16.0187 24.7403 16.2469 25.063 16.9001 24.9371C19.7581 23.9518 22.176 21.9881 23.7266 19.3929C25.2771 16.7977 25.8606 13.7379 25.3738 10.7542C24.887 7.77055 23.3614 5.05491 21.0664 3.08706C18.7714 1.11921 15.8548 0.0258086 12.8318 6.62719e-06Z" fill="white"/>
</svg>
